<svg width="18" height="18" viewBox="0 0 18 18" fill="none" xmlns="http://www.w3.org/2000/svg">
<path d="M17.7497 17.7497V11.3404C17.7497 8.19041 17.0716 5.78418 13.3966 5.78418C11.6248 5.78418 10.4435 6.74667 9.96228 7.66542H9.91853V6.06855H6.44043V17.7497H10.0717V11.9529C10.0717 10.4216 10.356 8.95603 12.2373 8.95603C14.0966 8.95603 14.1185 10.6841 14.1185 12.0404V17.7279H17.7497V17.7497Z" fill="#004AE2"/>
<path d="M0.53418 6.06934H4.16541V17.7505H0.53418V6.06934Z" fill="#004AE2"/>
<path d="M2.34999 0.25C1.19062 0.25 0.25 1.19062 0.25 2.34999C0.25 3.50935 1.19062 4.47185 2.34999 4.47185C3.50935 4.47185 4.44997 3.50935 4.44997 2.34999C4.44997 1.19062 3.50935 0.25 2.34999 0.25Z" fill="#004AE2"/>
</svg>
