<svg width="10" height="20" viewBox="0 0 10 20" fill="none" xmlns="http://www.w3.org/2000/svg">
<path d="M9.62359 0.755802L7.225 0.751953C4.53027 0.751953 2.78882 2.53864 2.78882 5.30402V7.40283H0.377154C0.168757 7.40283 0 7.57178 0 7.78018V10.8211C0 11.0295 0.16895 11.1983 0.377154 11.1983H2.78882V18.8715C2.78882 19.0799 2.95758 19.2487 3.16598 19.2487H6.31252C6.52092 19.2487 6.68967 19.0797 6.68967 18.8715V11.1983H9.50948C9.71787 11.1983 9.88663 11.0295 9.88663 10.8211L9.88779 7.78018C9.88779 7.68011 9.84795 7.58429 9.77733 7.51347C9.70671 7.44266 9.6105 7.40283 9.51044 7.40283H6.68967V5.62364C6.68967 4.76849 6.89345 4.33438 8.0074 4.33438L9.6232 4.3338C9.8314 4.3338 10.0002 4.16485 10.0002 3.95664V1.13296C10.0002 0.924946 9.8316 0.756187 9.62359 0.755802Z" fill="#004AE2"/>
</svg>
