<svg width="687" height="517" viewBox="0 0 687 517" fill="none" xmlns="http://www.w3.org/2000/svg">
<path d="M117.725 489.302C117.725 489.302 32.1762 428.38 7.54885 324.686C-17.0785 220.991 20.511 95.2606 91.801 31.7484C163.091 -31.7652 291.414 11.01 348.446 64.1537C405.479 117.297 405.479 117.297 405.479 117.297C405.479 117.297 459.919 147.111 531.209 144.517C602.499 141.925 666.013 239.139 682.864 315.613C699.715 392.087 659.532 493.191 659.532 493.191L117.725 489.302Z" fill="#DDECFF"/>
<path d="M78.8401 504.857C78.8401 504.857 19.2154 472.451 3.66114 397.272C-11.8931 322.093 55.508 253.396 61.989 215.806C68.4701 178.217 54.2127 131.554 113.836 95.2613C173.461 58.9686 279.748 71.9292 319.93 62.856C360.111 53.7828 406.774 -8.43402 487.139 5.82336C567.502 20.0823 645.273 62.856 649.162 156.181C653.051 249.507 623.238 252.099 653.051 302.65C682.862 353.202 694.529 388.199 680.27 440.046C666.013 491.893 636.2 506.152 636.2 506.152L78.8401 504.857Z" fill="#DDECFF"/>
<path d="M203.337 488.006C199.628 484.118 145.23 375.238 205.81 275.432C266.39 175.625 418.46 187.291 479.04 226.177C539.62 265.063 569.293 315.613 575.475 368.759C581.656 421.902 540.858 504.859 540.858 504.859L203.337 488.006Z" fill="#DDECFF"/>
<path d="M629.882 304.704H559.995C555.671 304.704 552.164 301.197 552.164 296.873V261.983C552.164 257.658 555.671 254.152 559.995 254.152H629.882C634.206 254.152 637.713 257.658 637.713 261.983V296.873C637.713 301.197 634.208 304.704 629.882 304.704Z" fill="#60A8FF"/>
<path d="M594.94 324.471L606.015 298.223H583.865L594.94 324.471Z" fill="#60A8FF"/>
<path d="M594.674 270.746H614.679V273.673L624.487 268.017L614.679 262.363V265.291H594.674V270.746Z" fill="#223A7A"/>
<path d="M624.487 282.248H604.482V279.322L594.674 284.976L604.482 290.63V287.705H624.487V282.248Z" fill="white"/>
<path d="M582.397 287.396L581.444 287.742C581.444 287.742 578.476 284.354 576.935 280.662C575.394 276.971 575.341 272.463 575.341 272.463L576.036 272.172L571.806 262.048C571.051 262.637 570.333 263.395 569.752 264.377C567.358 268.422 567.596 274.631 570.003 280.695C572.41 286.76 574.987 292.171 579.684 295.573C582.456 297.581 584.832 297.932 586.677 297.64L582.397 287.396Z" fill="#223A7A"/>
<path d="M585.435 286.205L584.119 286.683L588.45 297.048C588.938 296.888 589.377 296.691 589.759 296.482C590.877 295.87 591.368 294.525 590.898 293.341L588.636 287.643C588.133 286.376 586.716 285.74 585.435 286.205Z" fill="#223A7A"/>
<path d="M575.114 260.274C574.581 260.467 574.002 260.725 573.419 261.07L577.739 271.41L579.194 270.802C580.454 270.276 581.065 268.838 580.569 267.565L578.298 261.735C577.803 260.47 576.392 259.814 575.114 260.274Z" fill="#223A7A"/>
<path d="M183.13 470.506V353.848C183.13 353.848 181.833 322.415 198.36 313.342C214.887 304.269 284.558 309.129 284.558 309.129V470.504H183.13V470.506Z" fill="#1C83FF"/>
<path d="M306.32 199.926C306.32 199.926 302.107 235.247 300.487 238.164C298.868 241.08 298.868 241.08 298.868 241.08L290.766 246.588C290.766 246.588 306.32 268.624 325.439 272.188C344.558 275.753 342.937 264.412 342.937 264.412L340.02 258.255L343.909 224.555C343.909 224.555 309.236 208.676 306.32 199.926Z" fill="#FF9D8C"/>
<path d="M280.72 249.505L293.358 243.997C293.358 243.997 301.458 257.283 320.253 265.06C339.048 272.836 339.372 268.3 340.344 265.06C341.317 261.819 340.02 258.254 340.02 258.254L341.411 246.909L348.927 249.415L375.018 460.461L307.941 463.701L280.72 249.505Z" fill="white"/>
<path d="M342.614 247.128C342.614 247.128 347.15 257.606 351.363 282.233C355.576 306.861 359.464 348.339 360.436 376.855C361.409 405.372 362.056 470.505 362.056 470.505C362.056 470.505 445.66 470.505 446.632 470.505C447.605 470.505 453.437 438.424 453.437 438.424C453.437 438.424 416.496 406.775 414.551 401.591C413.254 398.134 413.903 334.082 408.394 304.593C402.886 275.104 395.756 269.163 380.851 261.819C365.445 254.228 342.614 247.128 342.614 247.128Z" fill="#223A7A"/>
<path d="M386.683 433.376C386.251 433.376 385.9 433.025 385.9 432.593C385.9 430.276 385.488 397.359 385.091 365.525C384.691 333.687 384.279 300.765 384.279 298.437C384.279 298.005 384.63 297.654 385.062 297.654C385.495 297.654 385.846 298.005 385.846 298.437C385.846 300.754 386.257 333.671 386.655 365.505C387.055 397.343 387.467 430.265 387.467 432.593C387.467 433.027 387.117 433.376 386.683 433.376Z" fill="#8593B6"/>
<path d="M218.179 425.465L217.53 470.508H316.041C316.041 470.508 320.254 432.27 318.633 428.705C317.014 425.141 218.179 425.465 218.179 425.465Z" fill="#223A7A"/>
<path d="M327.817 237.193C331.831 240.429 337.322 243.026 341.598 244.597L343.91 224.555C343.91 224.555 317.865 212.625 309.028 203.748C310.876 213.833 315.419 227.198 327.817 237.193Z" fill="#8E9BBB"/>
<path d="M374.372 134.144C374.372 134.144 381.177 145.81 382.473 160.069C383.77 174.326 382.473 210.944 370.807 226.499C359.142 242.053 334.839 237.517 323.821 228.12C313.709 219.494 303.729 209.973 301.137 191.179C298.545 172.384 306.645 136.738 329.653 129.286C352.66 121.831 374.372 134.144 374.372 134.144Z" fill="#FF9D8C"/>
<path d="M403.604 450.135C403.604 450.135 402.461 450.135 400.722 450.088C400.315 450.073 399.861 450.088 399.391 450.073C397.715 450.026 395.679 449.979 393.627 449.916C393.173 449.9 392.703 449.885 392.249 449.869C390.213 449.822 388.475 450.073 386.846 449.979H386.799C386.454 449.963 385.953 450.01 385.546 450.026C385.342 450.041 385.154 450.057 385.029 450.041C384.089 449.869 383.901 449.65 382.883 449.196C381.567 448.6 363.759 444.622 349.272 444.716C334.8 444.779 321.816 445.766 319.701 443.996C317.571 442.195 316.287 424.011 328.645 422.82L343.837 428.584C343.837 428.584 378.529 424.465 391.247 433.847C403.996 443.228 403.604 450.135 403.604 450.135Z" fill="#FF9D8C"/>
<path d="M386.799 449.979C386.455 449.963 385.954 450.01 385.546 450.026C385.233 449.525 384.575 448.616 384.215 448.24C380.299 444.247 370.839 441.662 367.409 440.832C367.096 440.754 366.893 440.441 366.971 440.127C367.034 439.814 367.362 439.626 367.691 439.689C372.688 440.895 383.291 443.98 386.298 449.039C386.392 449.18 386.643 449.666 386.799 449.979Z" fill="#223A7A"/>
<path d="M393.63 449.915C393.176 449.904 392.706 449.893 392.254 449.866C387.979 442.069 380.983 439.831 372.34 437.051L371.828 436.882C371.532 436.78 371.354 436.448 371.456 436.136C371.557 435.84 371.874 435.66 372.201 435.764L372.699 435.933C381.837 438.865 389.19 441.222 393.63 449.915Z" fill="#223A7A"/>
<path d="M400.722 450.087C400.315 450.077 399.861 450.082 399.391 450.069C396.797 444.617 388.216 435.492 376.862 433.367C376.535 433.312 376.322 433.01 376.377 432.681C376.447 432.369 376.75 432.158 377.063 432.213C388.759 434.41 398.193 443.961 400.722 450.087Z" fill="#223A7A"/>
<path d="M308.912 175.136C308.912 175.136 316.042 171.735 321.065 162.174C326.087 152.616 325.439 144.028 325.439 144.028C325.439 144.028 334.512 142.57 348.123 146.62C361.733 150.67 377.936 156.179 391.545 148.402C405.155 140.626 405.155 128.15 398.511 122.965C391.072 117.159 376.315 120.697 376.315 120.697C376.315 120.697 381.986 115.189 378.907 111.949C375.829 108.708 364.65 112.921 364.65 112.921C364.65 112.921 351.039 102.066 325.278 103.362C299.516 104.659 287.203 122.643 285.745 142.734C284.286 162.826 291.577 182.916 291.577 182.916L308.912 175.136Z" fill="#223A7A"/>
<path d="M361.177 180.005C359.717 183.604 359.753 187.781 359.385 191.601C359.098 194.573 358.553 198.037 361.275 200.043C362.575 201.002 368.727 203.586 365.564 205.68C364.358 206.479 362.336 206.26 360.964 206.197C360.018 206.153 359.062 206.114 358.118 206.044C357.101 205.967 356.105 205.661 355.089 205.657C354.494 205.654 354.307 206.448 354.793 206.752C356.429 207.776 358.827 208.092 360.735 208.166C362.641 208.239 363.936 208.152 365.654 207.3C366.71 206.777 367.733 206.034 367.902 204.78C368.092 203.367 367.031 202.1 365.968 201.31C364.743 200.402 363.239 199.979 362.002 199.093C360.287 197.865 360.428 195.796 360.549 193.88C360.838 189.272 361.897 184.746 362.309 180.159C362.37 179.457 361.399 179.457 361.177 180.005Z" fill="#8E9BBB"/>
<path d="M374.423 190.782C373.939 193.513 371.953 195.446 369.984 195.097C368.017 194.749 366.812 192.252 367.296 189.521C367.78 186.789 369.766 184.857 371.735 185.206C373.702 185.554 374.907 188.05 374.423 190.782Z" fill="#223A7A"/>
<path d="M349.628 188.617C349.19 191.565 347.113 193.697 344.991 193.382C342.869 193.065 341.503 190.42 341.941 187.474C342.38 184.526 344.457 182.395 346.579 182.71C348.701 183.024 350.067 185.671 349.628 188.617Z" fill="#223A7A"/>
<path d="M368.651 179.524C370.166 179.779 371.694 179.519 373.221 179.626C373.588 179.651 373.951 179.706 374.318 179.74C374.578 179.765 373.832 179.663 374.194 179.723C374.272 179.735 374.351 179.748 374.429 179.762C374.62 179.796 374.811 179.836 375 179.881C375.325 179.961 375.641 180.083 375.967 180.154C376.263 180.218 376.592 180.288 376.889 180.274C377.055 180.252 377.223 180.229 377.389 180.207C377.284 180.226 377.179 180.244 377.074 180.263C377.074 180.299 377.643 180.208 377.694 180.196C378.562 179.994 379.099 178.987 378.857 178.149C378.786 177.906 378.68 177.688 378.526 177.489C378.462 177.403 378.396 177.319 378.327 177.237C378.388 177.308 378.449 177.378 378.51 177.447C378.446 177.356 378.379 177.267 378.308 177.181C378.222 177.035 378.106 176.921 377.962 176.835C377.842 176.741 377.721 176.644 377.596 176.556C377.195 176.277 376.665 176.114 376.191 175.992C375.287 175.759 374.34 175.64 373.406 175.635C372.48 175.63 371.564 175.727 370.648 175.854C369.841 175.965 368.941 176.239 368.286 176.728C367.779 177.106 367.467 177.59 367.556 178.252C367.628 178.8 368.062 179.424 368.651 179.524Z" fill="#223A7A"/>
<path d="M351.367 175.187C351.162 175.065 350.952 174.959 350.734 174.86C350.549 174.775 350.048 174.514 350.427 174.721C350.289 174.646 350.151 174.57 350.01 174.498C349.382 174.182 348.731 173.97 348.053 173.797C346.574 173.419 345.017 173.324 343.501 173.483C341.883 173.654 340.406 174.046 339.006 174.89C338.809 175.009 338.605 175.126 338.439 175.291C338.328 175.432 338.218 175.573 338.112 175.717C338.143 175.67 338.173 175.623 338.204 175.576C337.772 175.878 337.521 176.375 337.524 176.896C337.528 177.399 337.789 177.82 338.226 178.063C338.755 178.357 339.257 178.217 339.8 178.076C339.528 178.076 339.254 178.076 338.981 178.076C339.431 178.146 339.747 178.163 340.201 178.063C340.217 178.06 340.638 177.955 340.361 178.013C340.101 178.068 340.801 177.958 340.878 177.947C340.967 177.935 341.454 177.886 340.939 177.936C341.034 177.927 341.128 177.914 341.222 177.903C341.467 177.874 341.711 177.844 341.957 177.823C343.027 177.737 344.092 177.69 345.164 177.654C346.159 177.621 347.172 177.614 348.165 177.657C348.591 177.676 349.016 177.69 349.442 177.701C349.681 177.707 349.58 177.745 349.415 177.693C349.503 177.722 349.594 177.737 349.681 177.762C349.858 177.811 350.032 177.869 350.205 177.935C350.895 178.198 351.724 177.7 351.981 177.064C352.261 176.375 352.025 175.579 351.367 175.187Z" fill="#223A7A"/>
<path d="M359.059 220.232C360.546 217.242 363.252 215.051 366.38 213.641C363.664 213.366 350.846 212.179 347.61 214.016C343.986 216.074 348.28 224.334 355.773 224.749C356.561 224.793 357.275 224.729 357.958 224.622C358.022 223.114 358.368 221.621 359.059 220.232Z" fill="#223A7A"/>
<path d="M299.84 202.842C299.84 202.842 301.137 207.865 308.589 213.697C316.042 219.53 326.843 223.796 326.843 223.796L327.708 220.015C327.708 220.015 316.528 215.154 311.344 209.808C306.16 204.461 305.511 201.545 305.511 201.545L299.84 202.842Z" fill="#DEE1EB"/>
<path d="M329.004 217.221C335.001 216.942 338.349 221.684 338.768 224.753C339.186 227.821 336.304 231.262 329.561 228.239C321.187 224.485 323.007 217.5 329.004 217.221Z" fill="#223A7A"/>
<path d="M304.538 165.738C304.538 165.738 307.129 147.116 319.607 134.469C343.424 110.327 363.677 111.785 363.677 111.785C363.677 111.785 363.514 108.383 355.899 105.789C348.75 103.355 345.529 104.655 345.529 104.655C345.529 104.655 325.925 106.276 309.398 124.584C292.871 142.893 291.089 166.224 291.089 166.224L304.538 165.738Z" fill="#DEE1EB"/>
<path d="M302.756 163.474C287.153 160.829 278.453 173.034 277.805 185.346C277.156 197.66 286.104 207.021 298.058 206.085C324.954 203.98 321.875 166.714 302.756 163.474Z" fill="white"/>
<path d="M294.986 194.118C290.869 194.118 287.387 192.049 285.396 188.403C283.265 184.498 283.443 179.692 285.852 176.158C286.035 175.892 286.4 175.823 286.668 176.003C286.936 176.186 287.005 176.551 286.823 176.819C284.66 179.992 284.505 184.318 286.428 187.839C288.253 191.181 291.472 193.073 295.287 192.937C298.852 192.842 301.873 191.211 303.795 188.345C305.987 185.075 306.492 180.556 305.079 176.838C303.677 173.149 299.834 170.633 296.338 171.09C296.023 171.132 295.721 170.907 295.678 170.586C295.636 170.264 295.862 169.97 296.183 169.926C300.271 169.381 304.562 172.175 306.175 176.42C307.718 180.484 307.167 185.422 304.769 188.998C302.629 192.19 299.273 194.005 295.317 194.112C295.205 194.117 295.096 194.118 294.986 194.118Z" fill="#818FB3"/>
<path d="M283.637 244.968C283.637 244.968 236.326 256.633 219.799 275.428C203.272 294.223 195.496 386.899 195.171 404.075C194.847 421.25 206.837 428.378 213.966 433.239C221.096 438.099 252.528 446.85 277.804 448.145C303.08 449.44 327.059 448.145 327.059 448.145C327.059 448.145 326.977 442.637 330.866 434.535C334.473 427.021 339.048 425.461 339.048 425.461L317.337 417.684C317.337 417.684 313.536 349.562 307.616 316.58C300.812 278.668 283.637 244.968 283.637 244.968Z" fill="#223A7A"/>
<path d="M362.058 406.803C361.951 406.803 361.843 406.781 361.741 406.735C361.345 406.56 361.167 406.098 361.342 405.703C365.774 395.701 370.368 376.067 372.954 362.292L373.167 361.178C373.95 357.127 374.924 352.086 372.981 348.609C371.989 346.835 369.75 342.985 367.596 339.284C365.361 335.442 363.251 331.812 362.665 330.729C361.524 328.613 365.117 322.962 370.32 315.211C371.725 313.116 372.938 311.308 373.646 310.083C375.501 306.876 374.267 303.937 372.837 300.534L372.35 299.363C371.054 296.183 369.58 292.997 368.158 289.917C367.577 288.657 366.995 287.398 366.421 286.131C365.662 284.455 364.897 282.753 364.124 281.028C359.544 270.821 354.809 260.265 348.746 250.069C348.524 249.697 348.648 249.217 349.019 248.996C349.39 248.775 349.871 248.897 350.093 249.268C356.202 259.543 360.957 270.138 365.554 280.388C366.326 282.111 367.089 283.811 367.848 285.486C368.421 286.748 369.001 288.004 369.582 289.26C371.014 292.357 372.492 295.56 373.801 298.772L374.282 299.928C375.74 303.397 377.247 306.985 375.003 310.865C374.268 312.135 373.042 313.964 371.621 316.082C368.91 320.124 363.265 328.538 364.045 329.984C364.619 331.046 366.724 334.664 368.952 338.496C371.111 342.207 373.357 346.066 374.35 347.845C376.574 351.823 375.538 357.175 374.708 361.476L374.495 362.58C373.552 367.597 368.562 393.283 362.777 406.337C362.642 406.63 362.357 406.803 362.058 406.803Z" fill="#8593B6"/>
<path d="M315.879 409.557C315.678 409.557 315.476 409.48 315.323 409.327C311.64 405.617 293.882 374.868 292.562 369.087C291.839 365.921 293.655 357.894 295.411 350.128C296.772 344.112 298.18 337.891 297.781 336.208C297.183 333.691 292.642 329.982 288.25 326.394C282.946 322.06 277.461 317.579 276.399 313.543C275.191 308.954 276.223 280.235 276.906 261.232C277.152 254.399 277.345 249.002 277.345 247.077C277.345 246.644 277.696 246.292 278.126 246.292C278.128 246.292 278.128 246.292 278.128 246.292C278.56 246.292 278.911 246.643 278.911 247.075C278.911 249.028 278.717 254.44 278.471 261.289C277.833 279.051 276.765 308.778 277.912 313.145C278.845 316.688 284.368 321.2 289.24 325.181C294.044 329.106 298.581 332.814 299.303 335.847C299.787 337.883 298.467 343.718 296.938 350.474C295.3 357.715 293.444 365.919 294.088 368.74C295.385 374.408 312.818 404.581 316.435 408.224C316.738 408.531 316.737 409.028 316.43 409.332C316.278 409.48 316.079 409.557 315.879 409.557Z" fill="#8593B6"/>
<path d="M252.204 396.11C252.168 396.11 252.13 396.107 252.094 396.102C251.667 396.041 251.368 395.645 251.429 395.217C252.004 391.143 260.992 310.014 261.406 303.8C261.435 303.367 261.807 303.029 262.239 303.07C262.67 303.099 262.997 303.472 262.969 303.903C262.555 310.127 253.556 391.358 252.979 395.436C252.923 395.828 252.588 396.11 252.204 396.11Z" fill="#8593B6"/>
<path d="M316.69 418.146C316.591 418.146 316.493 418.127 316.396 418.09C314.405 417.282 305.603 414.313 294.462 410.556C271.974 402.971 241.174 392.585 235.318 389.542C234.935 389.343 234.786 388.87 234.985 388.486C235.184 388.101 235.655 387.948 236.04 388.153C241.79 391.14 273.79 401.931 294.963 409.07C306.131 412.837 314.952 415.811 316.986 416.635C317.387 416.798 317.58 417.255 317.417 417.654C317.292 417.96 316.999 418.146 316.69 418.146Z" fill="#8593B6"/>
<path d="M305.876 450.451C286.084 450.451 247.714 446.883 218.567 436.574C218.158 436.429 217.945 435.982 218.089 435.574C218.232 435.166 218.684 434.953 219.088 435.096C255.91 448.121 307.42 450.345 317.004 448.193C317.427 448.102 317.845 448.365 317.939 448.786C318.033 449.209 317.768 449.627 317.347 449.723C315.273 450.188 311.262 450.451 305.876 450.451Z" fill="#8593B6"/>
<path d="M79.3484 255.898C85.4927 261.303 93.2753 264.767 98.6663 271.015C100.789 273.474 102.695 276.091 104.663 278.669C106.096 280.545 109.923 283.657 110.545 286.016C110.819 287.054 110.761 285.648 110.485 284.606C110.474 284.563 110.451 284.52 110.438 284.476C109.901 279.701 109.514 274.907 109.348 270.103C109.18 265.314 109.48 260.502 109.179 255.719C108.756 248.97 106.649 242.436 101.133 238.209C98.4376 236.143 94.9715 234.885 92.4938 232.59C90.1413 230.413 91.0842 227.92 92.4687 225.492C93.7624 223.221 95.3318 220.988 95.8361 218.372C96.4093 215.4 95.2911 212.334 93.7843 209.802C90.5751 204.416 83.4582 198.408 76.7187 199.213C71.0975 199.885 70.4601 206.369 70.5415 210.886C70.6198 215.277 71.0537 219.655 71.096 224.05C71.1398 228.564 70.3724 232.993 70.3081 237.487C70.1985 245.13 73.7304 250.956 79.3484 255.898Z" fill="#6BAEFF"/>
<path d="M136.437 326.036C138.147 321.956 140.109 318.141 142.523 314.432C145.834 309.34 149.507 304.38 151.729 298.68C154 292.86 153.667 286.635 153.891 280.506C154.055 276.001 155.393 271.511 155.032 266.994C154.86 264.828 153.612 261.324 150.81 261.683C148.63 261.962 147.334 264.665 146.496 266.391C145.034 269.4 144.02 272.612 142.935 275.77C142.51 277.004 142.106 278.261 141.571 279.455C141.259 280.149 140.268 281.842 139.331 281.61C137.74 281.217 139.184 274.717 139.422 273.566C140.612 267.783 142.401 262.41 142.65 256.46C143.01 247.833 142.34 237.563 133.901 232.846C131.696 231.613 128.901 230.878 126.806 232.722C124.738 234.542 124.154 237.695 123.847 240.29C122.904 248.257 124.781 255.802 127.334 263.298C129.442 269.487 131.954 275.875 132.137 282.493C132.314 288.865 128.999 294.511 127.443 300.529C124.964 310.122 125.476 315.206 125.465 318.313C125.449 322.204 125.59 326.053 125.875 329.935C126.137 333.501 126.446 337.069 126.883 340.618C126.97 341.337 127.052 342.085 127.149 342.837C125.778 339.535 125.299 335.756 124.164 332.44C122.146 326.547 119.805 320.774 117.869 314.85C116.27 309.957 114.758 305.027 112.647 300.323C110.666 295.91 108.274 291.244 104.579 288.003C102.346 286.046 99.6396 284.901 96.6528 284.924C94.742 284.938 93.0254 285.601 91.2007 286.083C88.9563 286.675 87.1896 286.472 85.3415 285.053C79.2943 280.404 77.4555 272.07 72.9777 266.184C69.6385 261.794 61.7165 254.311 55.8901 259.097C52.8 261.636 51.9479 266.545 52.1108 270.305C52.3144 275.024 54.3771 279.342 56.833 283.288C59.4455 287.485 62.8176 291.242 65.2186 295.556C66.6376 298.104 66.86 300.547 66.6345 303.423C66.423 306.131 66.1865 308.753 67.109 311.365C69.8812 319.212 78.5378 318.117 85.2694 318.322C89.9806 318.465 95.0349 319.167 99.5064 320.673C104.675 322.415 108.038 325.778 109.886 330.891C111.223 334.591 111.938 338.793 114.456 341.937C115.64 343.415 117.208 344.507 118.931 345.268C121.557 346.428 129.561 346.934 129.62 346.203C129.819 343.755 130.98 341.172 131.707 338.849C133.069 334.492 134.671 330.245 136.437 326.036Z" fill="#6BAEFF"/>
<path d="M173.604 324.558C172.908 320.072 173.041 315.127 170.918 311.008C170.766 310.714 170.363 310.638 170.091 310.79C168.568 311.635 168.506 314.094 168.38 315.6C168.175 318.1 168.327 320.606 168.02 323.098C167.48 327.477 166.468 331.991 164.891 336.119C163.107 340.788 159.86 343.437 155.146 344.895C152.115 345.832 149.145 346.646 146.616 348.657C144.353 350.457 142.78 352.939 141.613 355.555C138.465 362.612 136.966 370.503 135.508 378.044C134.526 383.122 133.724 388.223 132.492 393.249C131.259 398.272 129.937 403.271 129.229 408.404C129.11 408.662 128.983 408.919 128.874 409.181C128.551 409.948 129.751 410.363 130.166 409.726C135.032 402.235 140.96 395.511 149.048 391.385C152.701 389.522 157.553 389.136 160.599 386.207C162.917 383.98 163.237 380.583 162.889 377.554C162.433 373.574 160.526 370.298 158.54 366.907C157.448 365.045 156.159 363.048 156.599 360.784C157.014 358.648 158.79 357.079 160.552 355.984C163.913 353.896 167.846 352.958 170.6 349.948C173.157 347.152 174.575 343.675 174.858 339.91C175.236 334.893 174.371 329.513 173.604 324.558Z" fill="#6BAEFF"/>
<path d="M107.249 350.421C102.955 344.889 97.7719 340.118 91.9393 336.245C88.8287 334.179 81.4863 330.101 80.0046 336.198C79.1369 339.771 82.6327 343.285 84.9335 345.525C88.3918 348.891 92.3919 351.795 95.3098 355.673C91.6965 356.825 87.9219 357.049 84.7832 359.547C81.0665 362.504 79.4 368.215 83.0854 371.839C84.8803 373.604 87.2625 374.688 89.4975 375.77C92.4044 377.177 95.3646 378.453 98.3451 379.698C104.779 382.386 111.293 385.113 116.781 389.514C122.373 394.001 127.629 401.587 128.074 408.906C128.116 409.602 127.851 408.967 128.268 408.649C128.495 408.852 129.262 408.486 129.258 408.079C129.143 397.217 127.192 386.875 122.753 376.928C118.64 367.704 113.451 358.41 107.249 350.421Z" fill="#6BAEFF"/>
<path d="M92.4168 249.316C94.7865 254.232 97.2643 259.036 99.894 263.83C102.425 268.445 104.954 273.025 106.848 277.951C109.18 284.014 111.625 289.987 114.09 295.997C116.653 302.243 118.944 308.607 120.781 315.105C124.368 327.788 127.032 340.844 128.349 353.965C129.02 360.635 129.323 367.346 129.14 374.05C128.996 379.287 128.406 384.47 127.914 389.681C127.402 395.103 127.032 400.59 127.486 406.031C127.865 410.579 128.589 415.986 132.118 419.231C132.808 419.867 133.787 419.074 133.386 418.252C129.192 409.65 129.427 400.273 130.229 390.945C130.672 385.797 131.286 380.673 131.46 375.505C131.681 368.928 131.422 362.339 130.803 355.789C129.587 342.915 127.019 330.192 123.69 317.706C121.981 311.304 119.87 305.026 117.434 298.863C114.994 292.687 112.176 286.679 109.811 280.472C105.534 269.247 99.0169 259.296 93.2453 248.833C92.9399 248.29 92.1521 248.767 92.4168 249.316Z" fill="#43588E"/>
<path d="M128.539 341.103C129.217 332.927 129.943 325.057 132.698 317.259C133.983 313.622 135.54 310.085 136.781 306.434C137.805 303.418 139.338 299.278 138.551 296.071C138.463 295.712 137.941 295.731 137.843 296.071C137.315 297.903 137.373 299.911 136.992 301.79C136.623 303.618 136.128 305.416 135.559 307.191C134.35 310.969 132.77 314.59 131.401 318.306C128.755 325.491 127.397 333.447 127.975 341.101C128.004 341.466 128.509 341.465 128.539 341.103Z" fill="#43588E"/>
<path d="M81.1701 294.126C84.4153 301.965 94.1682 302.416 101.273 304.172C106.346 305.425 110.091 308.811 112.781 313.205C115.724 318.011 117.716 323.654 119.353 329.02C119.372 329.081 119.46 329.056 119.447 328.994C117.46 319.598 114.612 308.285 104.928 303.914C97.1676 300.41 86.9401 302.169 81.9752 293.786C81.7308 293.375 80.9728 293.652 81.1701 294.126Z" fill="#43588E"/>
<path d="M123.41 339.861C123.795 340.383 124.149 340.926 124.548 341.439C124.746 341.691 124.946 341.93 125.195 342.134C125.45 342.342 125.748 342.601 126.097 342.595C126.243 342.591 126.346 342.43 126.266 342.3C126.107 342.039 125.817 341.882 125.59 341.681C125.358 341.476 125.12 341.276 124.894 341.061C124.442 340.632 124.025 340.165 123.582 339.727C123.497 339.644 123.333 339.758 123.41 339.861Z" fill="#43588E"/>
<path d="M103.12 364.73C108.716 369.325 113.88 374.762 117.982 380.716C119.943 383.564 121.753 386.577 123.395 389.62C125.188 392.942 126.364 396.455 127.769 399.94C127.876 400.205 128.358 400.211 128.322 399.865C127.545 392.494 122.875 386.175 119.136 380.041C117.194 376.856 114.779 374.287 112.182 371.631C109.499 368.887 106.768 366.291 103.623 364.077C103.241 363.807 102.754 364.429 103.12 364.73Z" fill="#43588E"/>
<path d="M147.689 356.051C144.994 357.578 144.906 361.837 144.853 364.556C144.751 369.779 146.045 374.685 143.752 379.664C141.681 384.159 138.373 387.913 135.772 392.088C133.336 395.996 130.935 400.994 130.99 405.697C130.993 405.97 131.41 406.122 131.537 405.846C132.517 403.71 132.87 401.284 133.571 399.046C134.361 396.529 135.465 394.244 136.892 392.031C139.395 388.153 142.468 384.622 144.497 380.451C146.637 376.057 146.324 371.702 146.183 366.938C146.092 363.901 145.788 359.021 148.237 356.762C148.623 356.408 148.131 355.801 147.689 356.051Z" fill="#43588E"/>
<path d="M129.661 406.181C118.802 406.031 98.1201 405.912 98.1201 405.912L103.239 443.912C104.39 452.46 111.687 458.841 120.314 458.841H129.232H130.095H139.013C147.64 458.841 154.935 452.462 156.088 443.912L161.206 405.912C161.203 405.912 140.519 406.031 129.661 406.181Z" fill="white"/>
<path d="M654.51 336.352L592.563 459.058L411.961 460.353L467.697 334.624L654.51 336.352Z" fill="#F6F7FA"/>
<path d="M292.097 459.591L292.131 449.769H409.044L462.836 331.816H649.811L654.509 336.354H471.854L415.956 459.492C415.956 459.491 292.097 459.267 292.097 459.591Z" fill="#D9DEE8"/>
<path d="M560.728 404.063C558.687 410.184 547.614 414.909 535.994 414.619C524.375 414.33 516.609 409.131 518.648 403.01C520.688 396.89 531.762 392.164 543.382 392.454C555.002 392.745 562.769 397.942 560.728 404.063Z" fill="#D9DEE8"/>
<path d="M415.958 460.272C415.85 460.272 415.738 460.249 415.633 460.202C415.24 460.023 415.066 459.559 415.245 459.165L471.35 335.567H654.51C654.942 335.567 655.293 335.918 655.293 336.35C655.293 336.783 654.942 337.134 654.51 337.134H472.359L416.669 459.813C416.54 460.101 416.254 460.272 415.958 460.272Z" fill="white"/>
<path d="M283.962 468.886H69.1191V516.519H283.962V468.886Z" fill="#596B9B"/>
<path d="M669.277 468.886H282.733V516.519H669.277V468.886Z" fill="#7A89AF"/>
<path d="M283.963 468.886H282.735H69.1201V477.635H282.735H283.963H669.278V468.886H283.963Z" fill="#BDC4D7"/>
<path d="M293.359 459.488H58.749V471.154H293.359V459.488Z" fill="#6F7FA9"/>
<path d="M678.676 459.488H292.133V471.154H678.676V459.488Z" fill="#9CA6C3"/>
<path d="M229.72 209.565H153.877C149.183 209.565 145.379 205.76 145.379 201.066V163.204C145.379 158.51 149.183 154.706 153.877 154.706H229.72C234.414 154.706 238.219 158.51 238.219 163.204V201.066C238.219 205.76 234.413 209.565 229.72 209.565Z" fill="white"/>
<path d="M259.833 182.135L231.348 170.114V194.154L259.833 182.135Z" fill="white"/>
<path d="M173.806 187.382C176.704 187.382 179.053 185.033 179.053 182.136C179.053 179.238 176.704 176.889 173.806 176.889C170.909 176.889 168.56 179.238 168.56 182.136C168.56 185.033 170.909 187.382 173.806 187.382Z" fill="#223A7A"/>
<path d="M191.8 187.382C194.697 187.382 197.046 185.033 197.046 182.136C197.046 179.238 194.697 176.889 191.8 176.889C188.902 176.889 186.553 179.238 186.553 182.136C186.553 185.033 188.902 187.382 191.8 187.382Z" fill="#223A7A"/>
<path d="M209.791 187.382C212.689 187.382 215.038 185.033 215.038 182.136C215.038 179.238 212.689 176.889 209.791 176.889C206.893 176.889 204.544 179.238 204.544 182.136C204.544 185.033 206.893 187.382 209.791 187.382Z" fill="#223A7A"/>
<path d="M615.841 38.2266H440.748C429.502 38.2266 420.387 47.342 420.387 58.5875V141.652C420.387 152.898 429.502 162.013 440.748 162.013H456.441C456.881 169.544 455.804 180.744 449.517 195.066C469.745 185.734 481.394 171.722 487.479 162.013H615.843C627.088 162.013 636.204 152.898 636.204 141.652V58.5875C636.202 47.342 627.087 38.2266 615.841 38.2266Z" fill="#60A8FF"/>
<path d="M541.148 77.8143H454.304C451.918 77.8143 449.982 75.88 449.982 73.4931C449.982 71.1062 451.917 69.1719 454.304 69.1719H541.148C543.535 69.1719 545.469 71.1062 545.469 73.4931C545.469 75.88 543.535 77.8143 541.148 77.8143Z" fill="white"/>
<path d="M603.419 102.981H452.629C451.168 102.981 449.982 101.796 449.982 100.334C449.982 98.8731 451.168 97.6875 452.629 97.6875H603.419C604.881 97.6875 606.066 98.8731 606.066 100.334C606.066 101.797 604.881 102.981 603.419 102.981Z" fill="#D2E6FF"/>
<path d="M603.419 117.672H452.629C451.168 117.672 449.982 116.488 449.982 115.025C449.982 113.564 451.168 112.378 452.629 112.378H603.419C604.881 112.378 606.066 113.564 606.066 115.025C606.066 116.488 604.881 117.672 603.419 117.672Z" fill="#D2E6FF"/>
<path d="M570.526 133.334H452.628C451.167 133.334 449.981 132.148 449.981 130.687C449.981 129.226 451.167 128.04 452.628 128.04H570.526C571.987 128.04 573.173 129.226 573.173 130.687C573.173 132.15 571.989 133.334 570.526 133.334Z" fill="#D2E6FF"/>
<path d="M602.236 77.8143H560.808C558.422 77.8143 556.486 75.88 556.486 73.4931C556.486 71.1062 558.421 69.1719 560.808 69.1719H602.236C604.621 69.1719 606.557 71.1062 606.557 73.4931C606.556 75.88 604.621 77.8143 602.236 77.8143Z" fill="white"/>
<path d="M497.819 268.84H450.779C449.048 268.84 447.646 267.438 447.646 265.707V233.573C447.646 231.842 449.048 230.44 450.779 230.44H497.819C499.55 230.44 500.952 231.842 500.952 233.573V265.707C500.952 267.436 499.55 268.84 497.819 268.84Z" fill="white"/>
<path d="M474.626 255.378C474.361 255.378 474.095 255.288 473.877 255.108L448.276 233.963C447.776 233.549 447.706 232.81 448.118 232.309C448.534 231.807 449.274 231.74 449.772 232.151L474.604 252.66L498.804 231.602C499.291 231.178 500.035 231.228 500.461 231.718C500.887 232.208 500.835 232.949 500.347 233.375L475.395 255.086C475.176 255.281 474.9 255.378 474.626 255.378Z" fill="#6F7FA9"/>
<path d="M449.023 267.963C448.731 267.963 448.44 267.857 448.213 267.639C447.741 267.191 447.723 266.449 448.172 265.977L466.077 247.155C466.52 246.685 467.269 246.664 467.737 247.114C468.209 247.562 468.228 248.304 467.778 248.776L449.873 267.599C449.643 267.841 449.333 267.963 449.023 267.963Z" fill="#6F7FA9"/>
<path d="M499.574 267.274C499.273 267.274 498.971 267.16 498.742 266.93L480.909 249.048C480.452 248.588 480.452 247.844 480.912 247.386C481.373 246.927 482.115 246.929 482.572 247.388L500.405 265.27C500.863 265.73 500.863 266.474 500.402 266.931C500.174 267.162 499.875 267.274 499.574 267.274Z" fill="#6F7FA9"/>
<path d="M503.396 244.967C512.076 244.967 519.112 237.931 519.112 229.252C519.112 220.572 512.076 213.536 503.396 213.536C494.717 213.536 487.681 220.572 487.681 229.252C487.681 237.931 494.717 244.967 503.396 244.967Z" fill="#FF5F42"/>
<path d="M498.687 226.582C498.687 225.862 498.231 225.154 497.487 224.71C497.955 224.458 498.471 223.978 498.471 223.102C498.471 221.758 497.331 220.69 495.879 220.69C494.427 220.69 493.275 221.758 493.275 223.102C493.275 223.894 493.731 224.422 494.235 224.71C493.635 225.082 493.071 225.67 493.071 226.582C493.071 227.962 494.319 229.09 495.879 229.09C497.439 229.09 498.687 227.962 498.687 226.582ZM494.715 223.126C494.715 222.49 495.207 222.01 495.879 222.01C496.539 222.01 497.031 222.49 497.031 223.126C497.031 223.774 496.539 224.254 495.879 224.254C495.207 224.254 494.715 223.774 494.715 223.126ZM495.879 227.77C495.111 227.77 494.511 227.23 494.511 226.558C494.511 225.874 495.111 225.334 495.879 225.334C496.647 225.334 497.247 225.874 497.247 226.558C497.247 227.23 496.647 227.77 495.879 227.77ZM502.213 229.21C503.977 229.21 505.513 227.89 505.513 226.234C505.513 224.65 504.313 223.45 502.705 223.45C502.273 223.45 501.769 223.582 501.469 223.75L501.697 222.01H504.673C505.057 222.01 505.345 221.734 505.345 221.362C505.345 220.978 505.057 220.69 504.673 220.69H501.205C500.833 220.69 500.545 220.93 500.485 221.266L500.113 224.242C500.053 224.626 500.173 225.262 500.965 225.262C501.421 225.262 501.817 224.77 502.573 224.77C503.365 224.77 504.073 225.334 504.073 226.234C504.073 227.134 503.197 227.902 502.201 227.902C501.877 227.902 501.565 227.746 501.313 227.59C501.109 227.446 500.917 227.362 500.773 227.362C500.341 227.362 500.101 227.662 500.101 227.926C500.101 228.178 500.233 228.502 500.437 228.67C500.869 229.018 501.613 229.21 502.213 229.21Z" fill="white"/>
<path d="M661.247 223.469H569.433C565.973 223.469 563.168 220.663 563.168 217.204V202.838C563.168 199.378 565.973 196.573 569.433 196.573H661.247C664.707 196.573 667.512 199.378 667.512 202.838V217.204C667.512 220.663 664.707 223.469 661.247 223.469Z" fill="#223A7A"/>
<path d="M576.061 217.072C575.649 217.072 575.319 216.925 575.07 216.632C574.819 216.339 574.708 215.971 574.739 215.531L575.137 212.049C575.165 211.962 575.151 211.902 575.093 211.872C575.034 211.843 574.96 211.858 574.872 211.916L572.008 213.988C571.655 214.253 571.287 214.349 570.905 214.275C570.523 214.203 570.214 213.974 569.979 213.592C569.715 213.122 569.665 212.71 569.824 212.358C569.986 212.005 570.258 211.756 570.64 211.609L573.859 210.154C573.947 210.124 573.992 210.081 573.992 210.021C573.992 209.963 573.948 209.919 573.859 209.888L570.64 208.433C570.228 208.256 569.964 207.979 569.848 207.595C569.732 207.213 569.776 206.831 569.981 206.449C570.216 206.066 570.524 205.839 570.907 205.766C571.289 205.694 571.655 205.773 572.009 206.008L574.874 208.124C574.962 208.184 575.035 208.198 575.095 208.168C575.153 208.138 575.167 208.081 575.139 207.991L574.741 204.51C574.711 204.069 574.828 203.701 575.093 203.407C575.358 203.114 575.71 202.967 576.152 202.967C576.564 202.967 576.901 203.114 577.165 203.407C577.43 203.701 577.533 204.068 577.472 204.51L577.076 207.991C577.046 208.079 577.06 208.138 577.12 208.168C577.178 208.198 577.253 208.184 577.341 208.124L580.205 206.052C580.558 205.788 580.932 205.692 581.33 205.766C581.726 205.839 582.027 206.068 582.234 206.449C582.497 206.92 582.548 207.33 582.387 207.683C582.226 208.035 581.953 208.284 581.573 208.431L578.356 209.886C578.268 209.916 578.222 209.96 578.222 210.02C578.222 210.079 578.266 210.123 578.356 210.153L581.573 211.608C581.985 211.783 582.257 212.063 582.387 212.446C582.52 212.828 582.469 213.21 582.234 213.592C582.027 213.974 581.726 214.203 581.33 214.275C580.932 214.349 580.558 214.267 580.205 214.034L577.341 211.918C577.253 211.86 577.178 211.844 577.12 211.874C577.06 211.904 577.046 211.962 577.076 212.051L577.472 215.533C577.532 215.973 577.422 216.341 577.143 216.634C576.86 216.925 576.501 217.072 576.061 217.072Z" fill="white"/>
<path d="M595.048 217.072C594.636 217.072 594.306 216.925 594.057 216.632C593.806 216.339 593.697 215.971 593.726 215.531L594.124 212.049C594.152 211.962 594.138 211.902 594.08 211.872C594.021 211.843 593.947 211.858 593.86 211.916L590.995 213.988C590.643 214.253 590.275 214.349 589.892 214.275C589.51 214.203 589.202 213.974 588.967 213.592C588.702 213.122 588.652 212.71 588.812 212.358C588.973 212.005 589.245 211.756 589.628 211.609L592.846 210.154C592.934 210.124 592.978 210.081 592.978 210.021C592.978 209.963 592.934 209.919 592.846 209.888L589.628 208.433C589.216 208.256 588.951 207.979 588.835 207.595C588.719 207.213 588.763 206.831 588.968 206.449C589.203 206.066 589.512 205.839 589.894 205.766C590.276 205.694 590.643 205.773 590.997 206.008L593.861 208.124C593.949 208.184 594.022 208.198 594.082 208.168C594.14 208.138 594.154 208.081 594.126 207.991L593.728 204.51C593.698 204.069 593.816 203.701 594.08 203.407C594.345 203.114 594.698 202.967 595.139 202.967C595.551 202.967 595.888 203.114 596.153 203.407C596.417 203.701 596.519 204.068 596.46 204.51L596.063 207.991C596.034 208.079 596.048 208.138 596.107 208.168C596.165 208.198 596.24 208.184 596.328 208.124L599.193 206.052C599.543 205.788 599.919 205.692 600.317 205.766C600.713 205.839 601.014 206.068 601.221 206.449C601.484 206.92 601.536 207.33 601.374 207.683C601.213 208.035 600.941 208.284 600.56 208.431L597.343 209.886C597.255 209.916 597.21 209.96 597.21 210.02C597.21 210.079 597.254 210.123 597.343 210.153L600.56 211.608C600.972 211.783 601.244 212.063 601.374 212.446C601.507 212.828 601.456 213.21 601.221 213.592C601.014 213.974 600.713 214.203 600.317 214.275C599.919 214.349 599.545 214.267 599.193 214.034L596.328 211.918C596.24 211.86 596.165 211.844 596.107 211.874C596.048 211.904 596.034 211.962 596.063 212.051L596.46 215.533C596.519 215.973 596.409 216.341 596.131 216.634C595.849 216.925 595.488 217.072 595.048 217.072Z" fill="white"/>
<path d="M614.041 217.072C613.629 217.072 613.298 216.925 613.049 216.632C612.799 216.339 612.687 215.971 612.719 215.531L613.116 212.049C613.145 211.962 613.131 211.902 613.073 211.872C613.013 211.843 612.939 211.858 612.852 211.916L609.987 213.988C609.635 214.253 609.267 214.349 608.885 214.275C608.502 214.203 608.194 213.974 607.959 213.592C607.694 213.122 607.644 212.71 607.804 212.358C607.965 212.005 608.238 211.756 608.62 211.609L611.838 210.154C611.926 210.124 611.972 210.081 611.972 210.021C611.972 209.963 611.928 209.919 611.838 209.888L608.62 208.433C608.208 208.256 607.943 207.979 607.827 207.595C607.711 207.213 607.755 206.831 607.96 206.449C608.195 206.066 608.504 205.839 608.886 205.766C609.268 205.694 609.635 205.773 609.989 206.008L612.853 208.124C612.941 208.184 613.015 208.198 613.074 208.168C613.132 208.138 613.146 208.081 613.118 207.991L612.72 204.51C612.69 204.069 612.808 203.701 613.074 203.407C613.339 203.114 613.691 202.967 614.131 202.967C614.543 202.967 614.88 203.114 615.145 203.407C615.409 203.701 615.513 204.068 615.452 204.51L615.055 207.991C615.026 208.079 615.04 208.138 615.099 208.168C615.157 208.198 615.232 208.184 615.32 208.124L618.185 206.052C618.537 205.788 618.912 205.692 619.309 205.766C619.706 205.839 620.006 206.068 620.213 206.449C620.476 206.92 620.528 207.33 620.367 207.683C620.205 208.035 619.933 208.284 619.552 208.431L616.335 209.886C616.247 209.916 616.202 209.96 616.202 210.02C616.202 210.079 616.246 210.123 616.335 210.153L619.552 211.608C619.964 211.783 620.237 212.063 620.367 212.446C620.5 212.828 620.448 213.21 620.213 213.592C620.006 213.974 619.706 214.203 619.309 214.275C618.912 214.349 618.537 214.267 618.185 214.034L615.32 211.918C615.232 211.86 615.157 211.844 615.099 211.874C615.04 211.904 615.026 211.962 615.055 212.051L615.452 215.533C615.511 215.973 615.402 216.341 615.123 216.634C614.839 216.925 614.481 217.072 614.041 217.072Z" fill="white"/>
<path d="M633.03 217.072C632.618 217.072 632.287 216.925 632.038 216.632C631.788 216.339 631.678 215.971 631.708 215.531L632.106 212.049C632.134 211.962 632.12 211.902 632.062 211.872C632.002 211.843 631.929 211.858 631.841 211.916L628.976 213.988C628.624 214.253 628.256 214.349 627.874 214.275C627.492 214.203 627.183 213.974 626.948 213.592C626.683 213.122 626.633 212.71 626.793 212.358C626.954 212.005 627.227 211.756 627.609 211.609L630.828 210.154C630.915 210.124 630.961 210.081 630.961 210.021C630.961 209.963 630.917 209.919 630.828 209.888L627.609 208.433C627.197 208.256 626.933 207.979 626.817 207.595C626.701 207.213 626.745 206.831 626.95 206.449C627.185 206.066 627.493 205.839 627.875 205.766C628.258 205.694 628.624 205.773 628.978 206.008L631.843 208.124C631.93 208.184 632.004 208.198 632.063 208.168C632.121 208.138 632.136 208.081 632.107 207.991L631.709 204.51C631.68 204.069 631.797 203.701 632.062 203.407C632.327 203.114 632.679 202.967 633.121 202.967C633.533 202.967 633.869 203.114 634.134 203.407C634.399 203.701 634.502 204.068 634.441 204.51L634.045 207.991C634.015 208.079 634.029 208.138 634.089 208.168C634.147 208.198 634.222 208.184 634.309 208.124L637.174 206.052C637.525 205.788 637.901 205.692 638.299 205.766C638.695 205.839 638.996 206.068 639.202 206.449C639.465 206.92 639.517 207.33 639.356 207.683C639.194 208.035 638.922 208.284 638.541 208.431L635.324 209.886C635.237 209.916 635.191 209.96 635.191 210.02C635.191 210.079 635.235 210.123 635.324 210.153L638.541 211.608C638.953 211.783 639.226 212.063 639.356 212.446C639.489 212.828 639.437 213.21 639.202 213.592C638.996 213.974 638.695 214.203 638.299 214.275C637.901 214.349 637.526 214.267 637.174 214.034L634.309 211.918C634.222 211.86 634.147 211.844 634.089 211.874C634.029 211.904 634.015 211.962 634.045 212.051L634.441 215.533C634.5 215.973 634.391 216.341 634.112 216.634C633.829 216.925 633.47 217.072 633.03 217.072Z" fill="white"/>
<path d="M652.019 217.072C651.607 217.072 651.277 216.925 651.028 216.632C650.777 216.339 650.667 215.971 650.697 215.531L651.095 212.049C651.123 211.962 651.109 211.902 651.051 211.872C650.992 211.843 650.918 211.858 650.83 211.916L647.966 213.988C647.613 214.253 647.245 214.349 646.863 214.275C646.481 214.203 646.172 213.974 645.937 213.592C645.673 213.122 645.623 212.71 645.782 212.358C645.944 212.005 646.216 211.756 646.598 211.609L649.817 210.154C649.905 210.124 649.95 210.081 649.95 210.021C649.95 209.963 649.906 209.919 649.817 209.888L646.598 208.433C646.186 208.256 645.922 207.979 645.806 207.595C645.69 207.213 645.734 206.831 645.939 206.449C646.174 206.066 646.482 205.839 646.865 205.766C647.247 205.694 647.613 205.773 647.967 206.008L650.832 208.124C650.92 208.184 650.993 208.198 651.053 208.168C651.111 208.138 651.125 208.081 651.097 207.991L650.699 204.51C650.669 204.069 650.786 203.701 651.053 203.407C651.317 203.114 651.67 202.967 652.11 202.967C652.522 202.967 652.859 203.114 653.123 203.407C653.388 203.701 653.491 204.068 653.43 204.51L653.034 207.991C653.004 208.079 653.018 208.138 653.078 208.168C653.136 208.198 653.209 208.184 653.299 208.124L656.163 206.052C656.516 205.788 656.89 205.692 657.288 205.766C657.684 205.839 657.985 206.068 658.192 206.449C658.455 206.92 658.506 207.33 658.345 207.683C658.184 208.035 657.911 208.284 657.529 208.431L654.312 209.886C654.224 209.916 654.179 209.96 654.179 210.02C654.179 210.079 654.223 210.123 654.312 210.153L657.529 211.608C657.941 211.783 658.214 212.063 658.345 212.446C658.478 212.828 658.427 213.21 658.192 213.592C657.985 213.974 657.684 214.203 657.288 214.275C656.89 214.349 656.516 214.267 656.163 214.034L653.299 211.918C653.211 211.86 653.136 211.844 653.078 211.874C653.018 211.904 653.004 211.962 653.034 212.051L653.43 215.533C653.49 215.973 653.38 216.341 653.101 216.634C652.819 216.925 652.459 217.072 652.019 217.072Z" fill="#67ACFF"/>
</svg>
