<svg width="19" height="17" viewBox="0 0 19 17" fill="none" xmlns="http://www.w3.org/2000/svg">
<path d="M12.4718 14.5692C12.4718 14.5692 17.4236 11.0033 17.0898 4.51635C17.0898 4.51635 18.7589 3.05093 19 2.40615C19 2.40615 17.5719 3.03138 16.8857 2.95323C16.8857 2.95323 18.5178 1.70272 18.4251 0.686712C18.4251 0.686712 16.8301 1.62456 16.0512 1.70271C16.0512 1.70271 13.1209 -0.895963 10.4132 1.5464C10.4132 1.5464 9.07789 2.67966 9.33755 5.49329C9.33755 5.49329 5.26035 5.49329 1.36277 1.23378C1.36277 1.23378 -0.195098 4.63359 2.54969 6.64609C2.54969 6.64609 1.67805 6.86101 0.787831 6.07946C0.787831 6.07946 0.732204 9.36202 3.94064 10.2413C3.94064 10.2413 2.97627 10.5343 2.23441 10.339C2.23441 10.339 2.88353 12.9767 5.79523 13.1135C5.79523 13.1135 3.95919 15.2237 0.25 14.8329C0.249993 14.8329 5.15542 19.3171 12.4718 14.5692Z" fill="#004AE2"/>
</svg>
