<svg width="52" height="48" viewBox="0 0 52 48" fill="none" xmlns="http://www.w3.org/2000/svg">
<path fill-rule="evenodd" clip-rule="evenodd" d="M28.6 35.5998H33.15C42.1247 35.5998 49.4 28.3244 49.4 19.3498C49.4 10.3751 42.1247 3.09976 33.15 3.09976H18.85C9.87532 3.09976 2.6 10.3751 2.6 19.3498C2.6 29.6386 9.38171 35.9296 16.8011 39.7938C20.486 41.713 24.1977 42.9533 27.0046 43.7136C27.5794 43.8692 28.1138 44.0041 28.6 44.1202V35.5998ZM31.2 47.2998C31.2 47.2998 30.2171 47.1564 28.6 46.7898C21.1071 45.0907 0 38.5963 0 19.3498C0 8.93923 8.43947 0.499756 18.85 0.499756H33.15C43.5605 0.499756 52 8.93923 52 19.3498C52 29.7603 43.5605 38.1998 33.15 38.1998H31.2V47.2998Z" fill="#00194B"/>
<path fill-rule="evenodd" clip-rule="evenodd" d="M26.0006 21.3001C26.7186 21.3001 27.3006 20.7181 27.3006 20.0001C27.3006 19.2821 26.7186 18.7001 26.0006 18.7001C25.2826 18.7001 24.7006 19.2821 24.7006 20.0001C24.7006 20.7181 25.2826 21.3001 26.0006 21.3001ZM26.0006 23.9001C28.1546 23.9001 29.9006 22.1541 29.9006 20.0001C29.9006 17.8461 28.1546 16.1001 26.0006 16.1001C23.8466 16.1001 22.1006 17.8461 22.1006 20.0001C22.1006 22.1541 23.8466 23.9001 26.0006 23.9001Z" fill="#00194B"/>
<path fill-rule="evenodd" clip-rule="evenodd" d="M36.4 21.3001C37.118 21.3001 37.7 20.7181 37.7 20.0001C37.7 19.2821 37.118 18.7001 36.4 18.7001C35.682 18.7001 35.1 19.2821 35.1 20.0001C35.1 20.7181 35.682 21.3001 36.4 21.3001ZM36.4 23.9001C38.554 23.9001 40.3 22.1541 40.3 20.0001C40.3 17.8461 38.554 16.1001 36.4 16.1001C34.246 16.1001 32.5 17.8461 32.5 20.0001C32.5 22.1541 34.246 23.9001 36.4 23.9001Z" fill="#00194B"/>
<path fill-rule="evenodd" clip-rule="evenodd" d="M15.6002 21.3001C16.3182 21.3001 16.9002 20.7181 16.9002 20.0001C16.9002 19.2821 16.3182 18.7001 15.6002 18.7001C14.8822 18.7001 14.3002 19.2821 14.3002 20.0001C14.3002 20.7181 14.8822 21.3001 15.6002 21.3001ZM15.6002 23.9001C17.7542 23.9001 19.5002 22.1541 19.5002 20.0001C19.5002 17.8461 17.7542 16.1001 15.6002 16.1001C13.4462 16.1001 11.7002 17.8461 11.7002 20.0001C11.7002 22.1541 13.4462 23.9001 15.6002 23.9001Z" fill="#00194B"/>
</svg>
