<svg width="64" height="65" viewBox="0 0 64 65" fill="none" xmlns="http://www.w3.org/2000/svg">
<g clip-path="url(#clip0_202_702)">
<path d="M57.0505 25.214C55.9208 24.6293 54.2185 24.8126 53.1502 26.597C53.1472 26.6021 53.1441 26.6072 53.1412 26.6124L49.1946 33.4732C48.0545 32.8866 46.6168 33.1758 45.799 34.2255C45.5165 34.5883 44.5831 35.8309 43.5952 37.1466C43.0536 37.8677 42.5122 38.5887 42.094 39.143C41.7563 39.5908 41.8454 40.2277 42.2931 40.5654C42.741 40.9034 43.3776 40.8141 43.7153 40.3663C44.1341 39.8111 44.6766 39.0889 45.2191 38.3665C46.1584 37.1159 47.1296 35.8226 47.4012 35.4739C47.6329 35.1763 48.0778 35.1187 48.3729 35.3483C48.592 35.5186 48.5803 35.9358 48.3381 36.5882C47.4762 38.91 46.4052 41.2302 45.3997 42.9538C45.1171 43.4384 45.2806 44.0602 45.7651 44.3429C46.2497 44.6255 46.8714 44.4619 47.1539 43.9775C48.2157 42.1573 49.3412 39.7217 50.2421 37.2951C50.5545 36.4533 50.6113 35.7794 50.5201 35.2422L54.8968 27.6337C55.2505 27.0471 55.7176 26.8111 56.1172 27.0179C56.3916 27.1599 56.624 27.5249 56.378 28.0865C56.0817 28.7411 55.4439 30.3614 54.637 32.4112C53.569 35.1242 52.2401 38.5008 51.1168 41.1281C49.7485 44.329 49.2216 45.1021 46.779 47.4914L42.8865 51.2994C42.6296 51.5508 42.5246 51.9194 42.6105 52.2684L43.9666 57.7751C43.9683 57.7817 43.9699 57.7884 43.9717 57.7951C43.994 57.8782 43.9465 57.948 43.9217 57.9676H35.9846C35.2306 57.9676 35.0687 57.7526 34.9002 57.2962C32.9081 51.9001 34.9629 48.8029 36.9756 46.7075C37.3641 46.303 37.3511 45.6601 36.9467 45.2715C36.5423 44.8829 35.8995 44.8957 35.5109 45.3003C34.0279 46.8444 33.0466 48.421 32.5192 50.1083C32.3028 49.4204 32.0114 48.75 31.6436 48.0952C30.2633 45.6373 28.0197 43.8365 26.2169 42.3894C25.1686 41.548 24.1783 40.7533 23.6205 40.037C23.3492 39.6887 22.3787 38.3964 21.4402 37.1468C20.4521 35.831 19.5188 34.5884 19.2363 34.2256C18.4185 33.1759 16.9809 32.8866 15.8407 33.4733L11.894 26.6124C11.8911 26.6072 11.888 26.6021 11.885 26.597C10.8166 24.8126 9.11425 24.6293 7.98457 25.214C6.84596 25.8034 6.07382 27.2625 6.80098 28.9106C6.8024 28.9138 6.80382 28.9169 6.80524 28.9201C7.00092 29.3515 7.3943 30.3356 7.71518 31.1445C7.92202 31.6659 8.5125 31.921 9.03352 31.7141C9.55485 31.5072 9.80982 30.9168 9.60298 30.3955C9.10968 29.1516 8.82647 28.4602 8.6573 28.0866C8.41146 27.525 8.6438 27.16 8.91817 27.018C9.31795 26.8112 9.78495 27.0473 10.1387 27.6339L14.5153 35.2423C14.4241 35.7795 14.4808 36.4534 14.7934 37.2953C15.6941 39.7217 16.8197 42.1573 17.8815 43.9775C18.1642 44.4619 18.7859 44.6255 19.2703 44.3429C19.7546 44.0602 19.9182 43.4383 19.6356 42.9538C18.6301 41.2301 17.559 38.9099 16.6971 36.5882C16.455 35.9358 16.4433 35.5187 16.6626 35.3482C16.9574 35.1191 17.4025 35.1764 17.6341 35.4739C17.9056 35.8226 18.877 37.1159 19.8163 38.3666C20.8036 39.6812 21.7361 40.9228 22.0184 41.2852C22.7221 42.1887 23.8022 43.0558 24.9458 43.9736C28.6004 46.9069 32.7428 50.2318 30.135 57.2961C29.9664 57.7525 29.8045 57.9675 29.0506 57.9675H21.1135C21.0887 57.948 21.0412 57.8781 21.0634 57.795C21.0653 57.7884 21.067 57.7817 21.0686 57.775L22.4246 52.2683C22.5106 51.9193 22.4056 51.5508 22.1486 51.2993L18.2561 47.4913C15.8137 45.102 15.2867 44.3289 13.9184 41.1279C13.6372 40.4704 13.3213 39.7138 12.9791 38.8791C12.7664 38.3601 12.1733 38.1117 11.6544 38.3247C11.1355 38.5375 10.8873 39.1307 11.1 39.6497C11.4509 40.5055 11.762 41.2503 12.051 41.9264C13.5266 45.3784 14.1974 46.3622 16.8362 48.9434L20.3139 52.3457L19.0987 57.2806C18.9273 57.9351 19.0708 58.6458 19.4838 59.1843C19.8809 59.7018 20.4698 59.9987 21.0996 59.9987H29.0505C30.5655 59.9987 31.5434 59.3448 32.04 57.9995C32.2279 57.4907 32.3867 56.9914 32.5185 56.5006C32.6494 56.9935 32.8081 57.4932 32.995 57.9995C33.4916 59.3448 34.4696 59.9987 35.9845 59.9987H43.9354C44.5652 59.9987 45.1541 59.7018 45.5513 59.1843C45.9641 58.646 46.1078 57.9354 45.9365 57.281L44.7211 52.3458L48.1989 48.9435C50.8375 46.3622 51.5084 45.3784 52.9841 41.9265C54.1187 39.2722 55.4537 35.8805 56.5265 33.1551C57.2936 31.2067 57.9559 29.5239 58.2298 28.9198C58.2313 28.9166 58.2326 28.9135 58.234 28.9103C58.9615 27.2625 58.1892 25.8034 57.0505 25.214Z" fill="#004AE2"/>
<path d="M11.3515 35.0213C11.3515 34.4604 10.8969 34.0057 10.3361 34.0057H10.3353C9.77452 34.0057 9.32031 34.4604 9.32031 35.0213C9.32031 35.5822 9.77523 36.0369 10.3361 36.0369C10.8969 36.0369 11.3515 35.5821 11.3515 35.0213Z" fill="#004AE2"/>
<path d="M39.682 41.9805C39.1213 41.9805 38.667 42.4352 38.667 42.9961C38.667 43.557 39.1219 44.0117 39.6827 44.0117C40.2436 44.0117 40.6982 43.557 40.6982 42.9961C40.6982 42.4352 40.2435 41.9805 39.6827 41.9805H39.682Z" fill="#004AE2"/>
<path d="M16.2725 24.8282H25.5316C25.4528 25.2536 25.4113 25.6902 25.4113 26.1343V27.8753C25.4113 28.4362 25.8659 28.8909 26.4268 28.8909H38.6121C39.1728 28.8909 39.6275 28.4362 39.6275 27.8753V26.1343C39.6275 25.6903 39.586 25.2537 39.5072 24.8282H48.7665C49.3272 24.8282 49.7819 24.3735 49.7819 23.8126V22.0716C49.7819 19.7049 48.6253 17.5428 46.7071 16.223C47.0033 15.6236 47.1707 14.9495 47.1707 14.2368V12.4959C47.1707 10.0158 45.1534 7.99805 42.6738 7.99805C40.1941 7.99805 38.1768 10.0157 38.1768 12.4959V14.2369C38.1768 14.9507 38.3447 15.6258 38.6418 16.226C38.0171 16.6594 37.4696 17.1874 37.0164 17.7847V16.5585C37.0164 14.0784 34.9991 12.0607 32.5194 12.0607C30.0397 12.0607 28.0224 14.0783 28.0224 16.5585V17.7849C27.5692 17.1875 27.0216 16.6594 26.3969 16.226C26.694 15.6258 26.8619 14.9508 26.8619 14.2369V12.4959C26.8619 10.0158 24.8446 7.99805 22.3649 7.99805C19.8852 7.99805 17.8679 10.0157 17.8679 12.4959V14.2369C17.8679 14.9496 18.0353 15.6237 18.3315 16.2231C16.4132 17.5427 15.2568 19.7041 15.2568 22.0717V23.8127C15.257 24.3735 15.7117 24.8282 16.2725 24.8282ZM37.5966 26.8597H27.4422V26.1343C27.4422 24.4161 28.3453 22.7955 29.7826 21.8649C30.5413 22.4489 31.4902 22.7973 32.5194 22.7973C33.5492 22.7973 34.4986 22.4485 35.2574 21.8639C35.4768 22.0046 35.6827 22.1606 35.875 22.3294C35.9068 22.3617 35.9402 22.3922 35.9761 22.4201C36.5 22.9053 36.9122 23.4917 37.1898 24.1414C37.2036 24.1817 37.22 24.2207 37.2386 24.2586C37.4715 24.8442 37.5965 25.4782 37.5965 26.1342V26.8597H37.5966ZM47.751 22.0717V22.7971H38.7982C38.4959 22.2294 38.1166 21.7041 37.669 21.2357C37.9061 19.833 38.7358 18.58 39.9384 17.8034C40.6969 18.3867 41.6453 18.7347 42.6738 18.7347C43.7036 18.7347 44.6529 18.3859 45.4118 17.8013C46.8673 18.7348 47.751 20.3256 47.751 22.0717ZM40.2076 12.4959C40.2076 11.1358 41.3139 10.0293 42.6737 10.0293C44.0335 10.0293 45.1397 11.1358 45.1397 12.4959V14.2369C45.1397 15.597 44.0334 16.7035 42.6737 16.7035C41.3138 16.7035 40.2076 15.597 40.2076 14.2369V12.4959ZM30.0533 16.5585C30.0533 15.1984 31.1596 14.0919 32.5194 14.0919C33.8792 14.0919 34.9855 15.1984 34.9855 16.5585V18.2996C34.9855 19.6596 33.8792 20.7661 32.5194 20.7661C31.1596 20.7661 30.0533 19.6596 30.0533 18.2996V16.5585ZM19.899 12.4959C19.899 11.1358 21.0053 10.0293 22.3651 10.0293C23.7249 10.0293 24.8312 11.1358 24.8312 12.4959V14.2369C24.8312 15.597 23.7249 16.7035 22.3651 16.7035C21.0053 16.7035 19.899 15.597 19.899 14.2369V12.4959ZM17.2879 22.0717C17.2879 20.325 18.1716 18.7347 19.6271 17.8014C20.386 18.386 21.3354 18.7348 22.3651 18.7348C23.3937 18.7348 24.342 18.3868 25.1005 17.8035C26.3028 18.58 27.1326 19.8331 27.3699 21.2354C26.9221 21.7038 26.5426 22.2293 26.2403 22.7972H17.288V22.0717H17.2879Z" fill="#004AE2"/>
</g>
<defs>
<clipPath id="clip0_202_702">
<rect width="52" height="52" fill="white" transform="translate(6 6.5)"/>
</clipPath>
</defs>
</svg>
