<svg width="68" height="69" viewBox="0 0 68 69" fill="none" xmlns="http://www.w3.org/2000/svg">
<g clip-path="url(#clip0_202_735)">
<path d="M57.9688 31.8836V17.9655L45.8355 13.5531V31.8836H44.1021V11.0836H23.3021V31.8836H21.5688V20.5381H19.8355V13.9199H16.3688V8.24719H14.6355V13.9199H11.1688V20.5381H9.43548V31.8836H7.70215V58.3563H23.3021V60.2472H44.1021V58.3563H59.7021V31.8836H57.9688ZM12.9021 15.8108H18.1021V20.5381H12.9021V15.8108ZM11.1688 22.429H19.8355V31.8836H11.1688V22.429ZM23.3021 56.4654H9.43548V33.7745H23.3021V56.4654ZM35.4355 58.3563H31.9688V48.9017H35.4355V58.3563ZM42.3688 58.3563H37.1688V47.0108H30.2355V58.3563H25.0355V12.9745H42.3688V58.3563ZM47.5688 16.1777L56.2355 19.3289V31.8836H54.5021V20.5381H52.7688V31.8836H51.0355V20.5381H49.3021V31.8836H47.5688V16.1777ZM52.7688 56.4654H49.3021V52.6836H52.7688V56.4654ZM57.9688 56.4654H54.5021V50.7926H47.5688V56.4654H44.1021V33.7745H57.9688V56.4654Z" fill="#004AE2"/>
<path d="M21.5689 35.6623H11.1689V37.5532H21.5689V35.6623Z" fill="#004AE2"/>
<path d="M21.5689 39.4445H11.1689V41.3354H21.5689V39.4445Z" fill="#004AE2"/>
<path d="M21.5689 43.2275H11.1689V45.1184H21.5689V43.2275Z" fill="#004AE2"/>
<path d="M21.5689 47.0079H11.1689V48.8988H21.5689V47.0079Z" fill="#004AE2"/>
<path d="M27.6357 16.7559V22.4286H32.8357V16.7559H27.6357ZM31.1024 20.5377H29.3691V18.6468H31.1024V20.5377Z" fill="#004AE2"/>
<path d="M34.5684 16.7559V22.4286H39.7684V16.7559H34.5684ZM38.035 20.5377H36.3017V18.6468H38.035V20.5377Z" fill="#004AE2"/>
<path d="M27.6357 24.3185V29.9912H32.8357V24.3185H27.6357ZM31.1024 28.1003H29.3691V26.2094H31.1024V28.1003Z" fill="#004AE2"/>
<path d="M34.5684 24.3185V29.9912H39.7684V24.3185H34.5684ZM38.035 28.1003H36.3017V26.2094H38.035V28.1003Z" fill="#004AE2"/>
<path d="M27.6357 31.8819V37.5546H32.8357V31.8819H27.6357ZM31.1024 35.6637H29.3691V33.7728H31.1024V35.6637Z" fill="#004AE2"/>
<path d="M34.5684 31.8819V37.5546H39.7684V31.8819H34.5684ZM38.035 35.6637H36.3017V33.7728H38.035V35.6637Z" fill="#004AE2"/>
<path d="M27.6357 39.4445V45.1172H32.8357V39.4445H27.6357ZM31.1024 43.2263H29.3691V41.3354H31.1024V43.2263Z" fill="#004AE2"/>
<path d="M34.5684 39.4445V45.1172H39.7684V39.4445H34.5684ZM38.035 43.2263H36.3017V41.3354H38.035V43.2263Z" fill="#004AE2"/>
<path d="M47.5693 35.6623H45.8359V37.5532H47.5693V35.6623Z" fill="#004AE2"/>
<path d="M52.7684 35.6623H49.3018V37.5532H52.7684V35.6623Z" fill="#004AE2"/>
<path d="M56.2353 35.6623H54.502V37.5532H56.2353V35.6623Z" fill="#004AE2"/>
<path d="M47.5693 39.4445H45.8359V41.3354H47.5693V39.4445Z" fill="#004AE2"/>
<path d="M52.7684 39.4445H49.3018V41.3354H52.7684V39.4445Z" fill="#004AE2"/>
<path d="M56.2353 39.4445H54.502V41.3354H56.2353V39.4445Z" fill="#004AE2"/>
<path d="M47.5693 43.2275H45.8359V45.1184H47.5693V43.2275Z" fill="#004AE2"/>
<path d="M52.7684 43.2275H49.3018V45.1184H52.7684V43.2275Z" fill="#004AE2"/>
<path d="M56.2353 43.2275H54.502V45.1184H56.2353V43.2275Z" fill="#004AE2"/>
<path d="M47.5693 47.0079H45.8359V48.8988H47.5693V47.0079Z" fill="#004AE2"/>
<path d="M52.7684 47.0079H49.3018V48.8988H52.7684V47.0079Z" fill="#004AE2"/>
<path d="M56.2353 47.0079H54.502V48.8988H56.2353V47.0079Z" fill="#004AE2"/>
</g>
<defs>
<clipPath id="clip0_202_735">
<rect width="52" height="52" fill="white" transform="translate(8 8.5)"/>
</clipPath>
</defs>
</svg>
