<svg width="64" height="65" viewBox="0 0 64 65" fill="none" xmlns="http://www.w3.org/2000/svg">
<g clip-path="url(#clip0_202_714)">
<path d="M17.5605 14.2462H21.5605V18.2462H17.5605V14.2462Z" fill="#004AE2"/>
<path d="M17.5605 22.2462H21.5605V26.2462H17.5605V22.2462Z" fill="#004AE2"/>
<path d="M17.5605 30.2472H21.5605V34.2472H17.5605V30.2472Z" fill="#004AE2"/>
<path d="M17.5605 38.2462H21.5605V42.2462H17.5605V38.2462Z" fill="#004AE2"/>
<path d="M25.5635 14.2462H29.5635V18.2462H25.5635V14.2462Z" fill="#004AE2"/>
<path d="M41.5605 30.2472H45.5606V34.2472H41.5605V30.2472Z" fill="#004AE2"/>
<path d="M41.5605 22.2462H45.5606V26.2462H41.5605V22.2462Z" fill="#004AE2"/>
<path d="M25.5635 22.2462H29.5635V26.2462H25.5635V22.2462Z" fill="#004AE2"/>
<path d="M41.5605 38.2462H45.5606V42.2462H41.5605V38.2462Z" fill="#004AE2"/>
<path d="M25.5635 30.2472H29.5635V34.2472H25.5635V30.2472Z" fill="#004AE2"/>
<path d="M41.5605 46.247H45.5606V50.247H41.5605V46.247Z" fill="#004AE2"/>
<path d="M25.5635 38.2462H29.5635V42.2462H25.5635V38.2462Z" fill="#004AE2"/>
<path d="M54.4514 53.1805H52.4958V16.025C52.4958 15.5063 52.2898 15.0089 51.9231 14.6422C51.5563 14.2754 51.0589 14.0694 50.5403 14.0694H36.8514V8.20275C36.8514 7.6841 36.6454 7.1867 36.2786 6.81996C35.9119 6.45322 35.4145 6.24719 34.8958 6.24719H11.4292C10.9105 6.24719 10.4131 6.45322 10.0464 6.81996C9.67964 7.1867 9.47361 7.6841 9.47361 8.20275V53.1805H7.51806C6.99941 53.1805 6.50201 53.3866 6.13527 53.7533C5.76853 54.12 5.5625 54.6174 5.5625 55.1361C5.5625 55.6547 5.76853 56.1521 6.13527 56.5189C6.50201 56.8856 6.99941 57.0916 7.51806 57.0916H54.4514C54.97 57.0916 55.4674 56.8856 55.8342 56.5189C56.2009 56.1521 56.4069 55.6547 56.4069 55.1361C56.4069 54.6174 56.2009 54.12 55.8342 53.7533C55.4674 53.3866 54.97 53.1805 54.4514 53.1805ZM13.3847 10.1583H32.9403V47.3139C32.9403 47.8325 33.1463 48.3299 33.513 48.6966C33.8798 49.0634 34.3772 49.2694 34.8958 49.2694C35.4145 49.2694 35.9119 49.0634 36.2786 48.6966C36.6454 48.3299 36.8514 47.8325 36.8514 47.3139V17.9805H48.5847V53.1805H29.0292V47.3139C29.0292 46.7952 28.8231 46.2978 28.4564 45.9311C28.0897 45.5643 27.5923 45.3583 27.0736 45.3583H19.2514C18.7327 45.3583 18.2353 45.5643 17.8686 45.9311C17.5019 46.2978 17.2958 46.7952 17.2958 47.3139V53.1805H13.3847V10.1583ZM25.1181 53.1805H21.2069V49.2694H25.1181V53.1805Z" fill="#004AE2"/>
</g>
<defs>
<clipPath id="clip0_202_714">
<rect width="52" height="52" fill="white" transform="translate(6 6.5)"/>
</clipPath>
</defs>
</svg>
