<svg width="68" height="69" viewBox="0 0 68 69" fill="none" xmlns="http://www.w3.org/2000/svg">
<g clip-path="url(#clip0_202_817)">
<path d="M49.6001 37.1C49.6001 35.6267 48.0401 34.5 46.1334 34.5C44.2267 34.5 42.6667 35.6267 42.6667 37.1V39.7L38.4201 37.88C39.4601 36.9267 40.1534 35.7133 40.5867 34.4133L42.9267 33.2C43.7934 32.7667 44.4001 31.9 44.4001 30.86V29.3C44.4001 27.8267 43.2734 26.7 41.8001 26.7H41.4534L40.9334 27.22V24.9667H42.6667V22.3667C42.6667 16.9933 39.1134 12.2267 34.0001 10.7533C33.8267 9.45333 32.7001 8.5 31.4001 8.5H29.6667C28.3667 8.5 27.2401 9.45333 27.0667 10.7533C21.9534 12.2267 18.4001 16.9933 18.4001 22.3667V24.9667H20.1334V27.22L19.6134 26.7H19.2667C17.7934 26.7 16.6667 27.8267 16.6667 29.3V30.86C16.6667 31.8133 17.1867 32.7667 18.1401 33.2L20.4801 34.4133C20.9134 35.7133 21.6067 36.9267 22.6467 37.88L15.4534 41C11.9867 42.56 9.7334 45.94 9.7334 49.7533V60.5H53.0667V35.28L49.6001 40.1333V37.1ZM44.4001 47.3267V39.3533C45.5267 39.7867 46.7401 39.7867 47.8667 39.3533V42.4733L44.4001 47.3267ZM46.1334 36.2333C47.1734 36.2333 47.8667 36.7533 47.8667 37.1C47.8667 37.4467 47.1734 37.9667 46.1334 37.9667C45.0934 37.9667 44.4001 37.4467 44.4001 37.1C44.4001 36.7533 45.0934 36.2333 46.1334 36.2333ZM42.6667 43.7733L37.0334 47.9333C36.6001 48.1933 35.9934 48.3667 35.4734 48.3667H32.5267L32.7867 47.3267C32.8734 46.98 33.2201 46.6333 33.6534 46.6333H34.8667C36.2534 46.6333 37.5534 45.94 38.4201 44.8133L41.1934 40.9133L42.7534 41.6067V43.7733H42.6667ZM31.1401 46.8933L30.5334 49.1467L29.9267 46.8933C29.6667 45.68 28.6267 44.9 27.4134 44.9H26.2001C25.3334 44.9 24.5534 44.4667 24.1201 43.7733L21.5201 40.1333L24.2067 38.92L26.7201 40.3067C29.0601 41.6067 31.8334 41.6067 34.1734 40.3067L36.6867 38.92L39.3734 40.1333L36.7734 43.7733C36.2534 44.4667 35.4734 44.9 34.6934 44.9H33.4801C32.4401 44.9 31.4001 45.68 31.1401 46.8933ZM28.5401 48.3667H25.5934C25.0734 48.3667 24.4667 48.1933 24.0334 47.8467L16.4934 42.3867L19.8734 40.9133L22.6467 44.8133C23.4267 45.94 24.8134 46.6333 26.2001 46.6333H27.4134C27.8467 46.6333 28.1934 46.8933 28.2801 47.3267L28.5401 48.3667ZM42.1467 28.52C42.4934 28.6067 42.6667 28.9533 42.6667 29.3V30.86C42.6667 31.2067 42.4934 31.4667 42.1467 31.64L40.9334 32.2467V32.16V29.7333L42.1467 28.52ZM20.3067 23.2333C20.6534 22.1933 21.6067 21.5 22.7334 21.5H38.3334C39.4601 21.5 40.4134 22.1933 40.7601 23.2333H20.3067ZM27.0667 12.5733V18.0333H28.8001V11.1C28.8001 10.58 29.1467 10.2333 29.6667 10.2333H31.4001C31.9201 10.2333 32.2667 10.58 32.2667 11.1V18.0333H34.0001V12.5733C37.5534 13.7867 40.1534 16.82 40.7601 20.5467C40.0667 20.0267 39.2001 19.7667 38.3334 19.7667H22.7334C21.8667 19.7667 21.0001 20.0267 20.3067 20.5467C20.9134 16.82 23.5134 13.7867 27.0667 12.5733ZM18.9201 31.64C18.6601 31.4667 18.4001 31.2067 18.4001 30.86V29.3C18.4001 28.9533 18.6601 28.6067 18.9201 28.52L20.1334 29.7333V32.16V32.2467L18.9201 31.64ZM21.8667 32.16V24.9667H39.2001V32.16C39.2001 34.4133 37.9867 36.4067 36.0801 37.4467L33.4801 38.8333C31.6601 39.7867 29.4934 39.7867 27.6734 38.8333L25.0734 37.4467C23.0801 36.4067 21.8667 34.3267 21.8667 32.16ZM11.4667 49.6667C11.4667 47.0667 12.7667 44.7267 14.8467 43.2533L23.0801 49.2333C23.8601 49.7533 24.7267 50.1 25.5934 50.1H29.6667V58.7667H27.0667V51.8333H20.8267L20.1334 49.06L18.4001 49.4067L19.0067 51.8333H17.5334V58.7667H11.4667V49.6667ZM25.3334 53.5667V55.3H19.2667V53.5667H25.3334ZM19.2667 57.0333H25.3334V58.7667H19.2667V57.0333ZM31.4001 58.7667V50.1H35.4734C36.4267 50.1 37.2934 49.84 37.9867 49.2333L42.6667 45.8533V49.6667L36.1667 58.7667H31.4001ZM51.3334 40.6533V58.7667H38.3334L49.6001 43.1667V43.08L51.3334 40.6533Z" fill="#004AE2"/>
<path d="M49.601 52.988V42.4219L41.8877 52.988H49.601ZM47.8677 51.3991H45.181L47.8677 47.6652V51.3991Z" fill="#004AE2"/>
</g>
<defs>
<clipPath id="clip0_202_817">
<rect width="52" height="52" fill="white" transform="translate(8 8.5)"/>
</clipPath>
</defs>
</svg>
