<svg width="107" height="42" viewBox="0 0 107 42" fill="none" xmlns="http://www.w3.org/2000/svg">
<path d="M1.70788 21.544C1.77188 20.488 2.02788 19.592 2.50788 18.888C2.95588 18.184 3.56388 17.64 4.29988 17.192C5.00388 16.776 5.83588 16.488 6.73188 16.296C7.62788 16.104 8.55588 16.008 9.48388 16.008C10.3159 16.008 11.1479 16.072 12.0119 16.2C12.8439 16.328 13.6439 16.552 14.3479 16.872C15.0519 17.224 15.6279 17.704 16.0759 18.312C16.5239 18.92 16.7479 19.72 16.7479 20.712V29.32C16.7479 30.088 16.7799 30.792 16.8759 31.464C16.9399 32.168 17.0999 32.68 17.3239 33H12.7159C12.6199 32.744 12.5559 32.488 12.4919 32.232C12.4279 31.976 12.3959 31.688 12.3959 31.4C11.6599 32.168 10.7959 32.68 9.83588 32.968C8.84388 33.288 7.85188 33.416 6.82788 33.416C6.02788 33.416 5.29188 33.32 4.61988 33.128C3.91588 32.936 3.33988 32.648 2.82788 32.232C2.31588 31.848 1.89988 31.336 1.61188 30.696C1.32388 30.088 1.19588 29.352 1.19588 28.488C1.19588 27.56 1.35588 26.792 1.67588 26.184C1.99588 25.576 2.44388 25.096 2.95588 24.712C3.46788 24.36 4.07588 24.104 4.74788 23.912C5.41988 23.72 6.09188 23.592 6.79588 23.464C7.46788 23.368 8.13988 23.272 8.81188 23.208C9.45188 23.144 10.0599 23.048 10.5719 22.92C11.0839 22.824 11.4679 22.632 11.7879 22.376C12.0759 22.12 12.2039 21.768 12.2039 21.288C12.2039 20.808 12.1079 20.424 11.9479 20.136C11.7879 19.848 11.5639 19.624 11.3079 19.464C11.0519 19.304 10.7319 19.208 10.3799 19.144C10.0279 19.08 9.64388 19.08 9.25988 19.048C8.36388 19.048 7.65988 19.24 7.14788 19.624C6.63588 20.008 6.31588 20.648 6.25188 21.544H1.70788ZM12.2039 24.904C12.0119 25.096 11.7559 25.224 11.4679 25.32C11.1799 25.416 10.8599 25.48 10.5399 25.544C10.2199 25.608 9.86788 25.672 9.51588 25.704C9.13188 25.768 8.77988 25.8 8.42788 25.864C8.07588 25.928 7.72388 26.024 7.40388 26.12C7.08388 26.248 6.79588 26.376 6.53988 26.568C6.28388 26.76 6.09188 26.984 5.96388 27.24C5.80388 27.528 5.73988 27.88 5.73988 28.296C5.73988 28.712 5.80388 29.064 5.96388 29.32C6.09188 29.608 6.31588 29.832 6.57188 29.992C6.82788 30.152 7.11588 30.248 7.46788 30.312C7.78788 30.376 8.13988 30.408 8.52388 30.408C9.41988 30.408 10.0919 30.28 10.6039 29.96C11.0839 29.672 11.4359 29.32 11.6919 28.904C11.9159 28.488 12.0439 28.072 12.1079 27.624C12.1719 27.208 12.1719 26.856 12.2039 26.6V24.904ZM20.2749 16.456H24.5949V19.528H24.6589C24.8509 19.048 25.1389 18.568 25.5229 18.12C25.8749 17.672 26.2909 17.32 26.7709 17C27.2189 16.68 27.7309 16.456 28.2749 16.264C28.7869 16.104 29.3629 16.04 29.9389 16.008C30.2269 16.008 30.5469 16.072 30.9309 16.168V20.392C30.7069 20.36 30.4509 20.328 30.1629 20.296C29.8429 20.264 29.5549 20.232 29.2989 20.232C28.4669 20.232 27.7629 20.392 27.1869 20.648C26.6109 20.936 26.1309 21.32 25.7789 21.8C25.4269 22.28 25.1709 22.824 25.0429 23.464C24.8829 24.104 24.8189 24.808 24.8189 25.544V33H20.2749V16.456ZM43.4139 22.28C43.0939 20.392 41.9739 19.432 40.0539 19.432C39.3179 19.432 38.7099 19.624 38.2299 19.944C37.7179 20.264 37.3339 20.712 37.0139 21.224C36.6939 21.736 36.5019 22.312 36.3739 22.952C36.2459 23.592 36.1819 24.2 36.1819 24.808C36.1819 25.416 36.2459 26.024 36.3739 26.632C36.5019 27.272 36.6939 27.816 36.9819 28.328C37.2699 28.84 37.6539 29.224 38.1659 29.544C38.6459 29.864 39.2539 30.024 39.9579 30.024C41.0459 30.024 41.8779 29.736 42.4539 29.128C43.0299 28.52 43.4139 27.688 43.5739 26.664H47.9579C47.6379 28.872 46.8059 30.536 45.3979 31.688C43.9899 32.84 42.1659 33.416 39.9899 33.416C38.7419 33.416 37.5899 33.224 36.5659 32.808C35.5419 32.392 34.6459 31.816 33.9419 31.048C33.2059 30.312 32.6299 29.416 32.2459 28.392C31.8299 27.368 31.6379 26.216 31.6379 24.968C31.6379 23.688 31.7979 22.504 32.1819 21.416C32.5659 20.328 33.1099 19.368 33.8459 18.568C34.5499 17.768 35.4459 17.128 36.5019 16.68C37.5259 16.232 38.7419 16.008 40.0859 16.008C41.0459 16.008 42.0059 16.136 42.9019 16.392C43.7979 16.648 44.6299 17.064 45.3339 17.576C46.0379 18.088 46.6459 18.76 47.0939 19.528C47.5419 20.296 47.7979 21.224 47.8619 22.28H43.4139ZM50.5249 10.152H55.0689V18.76H55.1649C55.7409 17.8 56.4769 17.128 57.3729 16.68C58.2689 16.232 59.1329 16.008 59.9969 16.008C61.2129 16.008 62.2049 16.2 62.9729 16.52C63.7409 16.84 64.3809 17.32 64.8289 17.896C65.2769 18.472 65.5649 19.208 65.7569 20.04C65.9489 20.872 66.0449 21.8 66.0449 22.824V33H61.5009V23.656C61.5009 22.312 61.2769 21.288 60.8609 20.616C60.4129 19.944 59.6769 19.592 58.5889 19.592C57.3409 19.592 56.4449 19.976 55.9009 20.712C55.3249 21.448 55.0689 22.664 55.0689 24.328V33H50.5249V10.152ZM74.1656 13.896H69.6216V10.152H74.1656V13.896ZM69.6216 16.456H74.1656V33H69.6216V16.456ZM83.5036 16.456H86.8316V19.496H83.5036V27.688C83.5036 28.456 83.6316 28.968 83.8876 29.224C84.1436 29.48 84.6556 29.608 85.4236 29.608C85.6796 29.64 85.9036 29.608 86.1596 29.576C86.3836 29.576 86.6076 29.544 86.8316 29.48V33C86.4476 33.064 85.9996 33.128 85.5516 33.128C85.0716 33.16 84.6236 33.16 84.1756 33.16C83.4716 33.16 82.7996 33.128 82.1596 33.032C81.5196 32.936 80.9756 32.744 80.4956 32.456C80.0156 32.2 79.6316 31.784 79.3756 31.272C79.0876 30.76 78.9596 30.088 78.9596 29.256V19.496H76.2076V16.456H78.9596V11.496H83.5036V16.456ZM93.0256 24.744C93.0256 25.416 93.0896 26.056 93.2176 26.696C93.3456 27.336 93.5376 27.88 93.8576 28.392C94.1776 28.904 94.5936 29.288 95.1056 29.576C95.6176 29.896 96.2576 30.024 97.0256 30.024C97.7936 30.024 98.4336 29.896 98.9456 29.576C99.4576 29.288 99.8736 28.904 100.194 28.392C100.514 27.88 100.706 27.336 100.866 26.696C100.994 26.056 101.058 25.416 101.058 24.744C101.058 24.104 100.994 23.432 100.866 22.792C100.738 22.152 100.514 21.608 100.194 21.096C99.8736 20.616 99.4576 20.232 98.9456 19.912C98.4336 19.592 97.7936 19.464 97.0256 19.432C96.2576 19.432 95.6176 19.592 95.1056 19.912C94.5936 20.232 94.1776 20.616 93.8576 21.096C93.5376 21.608 93.3456 22.152 93.2176 22.792C93.0896 23.432 93.0256 24.104 93.0256 24.744ZM88.4816 24.744C88.4816 23.432 88.6736 22.248 89.0896 21.16C89.4736 20.072 90.0496 19.176 90.8176 18.408C91.5536 17.64 92.4496 17.064 93.5056 16.648C94.5296 16.232 95.7136 16.008 97.0256 16.008C98.3056 16.008 99.4896 16.232 100.546 16.648C101.602 17.064 102.498 17.64 103.266 18.408C104.002 19.176 104.578 20.072 104.994 21.16C105.378 22.248 105.602 23.432 105.602 24.744C105.602 26.088 105.378 27.272 104.994 28.328C104.578 29.416 104.002 30.312 103.266 31.08C102.498 31.848 101.602 32.424 100.546 32.808C99.4896 33.224 98.3056 33.416 97.0256 33.416C95.7136 33.416 94.5296 33.224 93.5056 32.808C92.4496 32.424 91.5536 31.848 90.8176 31.08C90.0496 30.312 89.4736 29.416 89.0896 28.328C88.6736 27.272 88.4816 26.088 88.4816 24.744Z" fill="#004AE2"/>
</svg>
