<svg width="42" height="57" viewBox="0 0 42 57" fill="none" xmlns="http://www.w3.org/2000/svg">
<path d="M41.287 20.9938C41.287 9.54615 31.9974 0.350342 20.6435 0.350342C9.28952 0.350342 0 9.63986 0 20.9938C0 28.8758 4.7858 35.8198 11.2603 39.2908L9.38323 56.6497L20.6435 49.1435L31.9037 56.6497L30.0267 39.2908C36.5949 35.8188 41.287 28.8758 41.287 20.9938ZM20.6435 39.7603C10.2285 39.7603 1.87702 31.3151 1.87702 20.9938C1.87702 10.5788 10.3222 2.22736 20.6435 2.22736C30.9648 2.22736 39.41 10.6726 39.41 20.9938C39.4185 23.4607 38.9389 25.9048 37.9988 28.1855C37.0588 30.4662 35.6768 32.5384 33.9324 34.2828C32.1881 36.0271 30.1159 37.4091 27.8352 38.3492C25.5545 39.2893 23.1103 39.7688 20.6435 39.7603ZM29.0887 13.2993L31.9037 16.1143L19.236 28.7821L12.1983 21.7444L15.0134 18.9294L19.236 23.152L29.0887 13.2993Z" fill="#00194B"/>
</svg>
