<svg width="60" height="55" viewBox="0 0 60 55" fill="none" xmlns="http://www.w3.org/2000/svg">
<path d="M24.4292 14.3982V15.1339C24.4292 21.6499 20.3305 27.0097 15.2859 27.0097C10.2413 27.0097 6.14258 21.6498 6.14258 15.1339C6.14258 14.9237 6.14258 14.7135 6.14258 14.3982" stroke="white" stroke-width="2" stroke-miterlimit="10"/>
<path d="M4.3468 9.62258C4.95643 0.782474 11.6627 0.680868 15.0159 1.18889C15.3207 1.2905 16.2353 1.18889 16.5401 1.18889C22.6368 0.376052 25.685 7.28555 25.685 10.3338C25.685 11.4516 25.9428 14.1803 24.4186 15.7045C24.4186 15.7045 20.706 11.4516 20.5028 9.01284C20.5028 9.01284 8.91915 13.3821 8.10631 9.62247C8.10631 9.62247 7.29346 12.6707 6.58211 13.4837C6.58211 13.4837 6.20632 15.8207 6.20632 16.532C6.20655 16.5322 4.04198 13.4838 4.3468 9.62258V9.62258Z" stroke="white" stroke-width="2" stroke-linecap="round" stroke-linejoin="round"/>
<path d="M13.8573 15.4626C13.8573 16.279 13.245 16.8912 12.4286 16.8912C11.6123 16.8912 11 16.279 11 15.4626C11 14.6462 11.6123 14.0339 12.4286 14.0339C13.245 14.0339 13.8573 14.6462 13.8573 15.4626Z" fill="white"/>
<path d="M19.5721 15.4626C19.5721 16.279 18.9599 16.8912 18.1435 16.8912C17.3271 16.8912 16.7148 16.279 16.7148 15.4626C16.7148 14.6462 17.3271 14.0339 18.1435 14.0339C18.9599 14.0339 19.5721 14.6462 19.5721 15.4626Z" fill="white"/>
<path d="M13.1523 21.2151C14.4733 21.9263 16.099 21.9263 17.42 21.2151" stroke="white" stroke-width="2" stroke-linecap="round" stroke-linejoin="round"/>
<path d="M45.7607 41.3904C46.6464 42.1247 47.9293 42.1247 48.815 41.3904" stroke="white" stroke-width="2" stroke-linecap="round" stroke-linejoin="round"/>
<path d="M14.7148 53.9789V51.9979C14.7148 49.1787 17.5742 46.8928 20.4335 46.8928C23.8338 49.7121 27.2341 49.7121 30.7117 46.8928C33.5709 46.8928 36.4302 49.1787 36.4302 51.9979V53.9789" stroke="white" stroke-width="2" stroke-linecap="round" stroke-linejoin="round"/>
<path d="M36.4307 53.9789V51.9979C36.4307 49.1787 39.29 46.8928 42.1494 46.8928C45.5496 49.7121 48.9499 49.7121 52.4275 46.8928C55.2868 46.8928 58.1462 49.1787 58.1462 51.9979V53.9789" stroke="white" stroke-width="2" stroke-linecap="round" stroke-linejoin="round"/>
<path d="M28.7698 37.4082C28.8078 37.9749 28.3792 38.4651 27.8123 38.5032C27.2456 38.5412 26.7553 38.1126 26.7172 37.546C26.6791 36.9793 27.1077 36.4891 27.6746 36.4511C27.6976 36.4495 27.7206 36.4488 27.7436 36.4488C28.2918 36.4311 28.7509 36.8603 28.7698 37.4082Z" fill="white"/>
<path d="M24.0449 41.3904C24.9306 42.1247 26.2135 42.1247 27.0991 41.3904" stroke="white" stroke-width="2" stroke-linecap="round" stroke-linejoin="round"/>
<path d="M23.4005 36.4488C23.4235 36.4488 23.4466 36.4496 23.4696 36.4511C24.0363 36.4891 24.465 36.9793 24.427 37.546C24.3889 38.1126 23.8986 38.5411 23.3318 38.5032C22.7651 38.4651 22.3364 37.9749 22.3744 37.4082C22.3933 36.8603 22.8524 36.4311 23.4005 36.4488Z" fill="white"/>
<path d="M50.4856 37.4082C50.5236 37.9749 50.095 38.4651 49.5282 38.5032C48.9614 38.5412 48.4711 38.1126 48.433 37.546C48.395 36.9793 48.8235 36.4891 49.3904 36.4511C49.4134 36.4495 49.4364 36.4488 49.4595 36.4488C50.0075 36.4311 50.4666 36.8603 50.4856 37.4082Z" fill="white"/>
<path d="M45.1164 36.4488C45.1393 36.4488 45.1624 36.4496 45.1854 36.4511C45.7522 36.4891 46.1809 36.9793 46.1428 37.546C46.1047 38.1126 45.6144 38.5411 45.0477 38.5032C44.4809 38.4651 44.0522 37.9749 44.0902 37.4082C44.109 36.8603 44.5681 36.4311 45.1164 36.4488Z" fill="white"/>
<path d="M33.0575 36.9131C33.0664 37.0742 33.0709 37.2365 33.071 37.4001C33.2352 41.6644 29.9188 45.258 25.6551 45.4359C21.3913 45.258 18.075 41.6644 18.2392 37.4001C18.2392 37.2913 18.2412 37.183 18.2452 37.0754" stroke="white" stroke-width="2" stroke-miterlimit="10"/>
<path d="M22.8701 33.4881C23.4066 37.3319 27.9984 32.4931 27.9984 32.4931C28.6259 34.2917 33.0562 36.9132 33.0562 36.9132C34.2362 35.8209 33.6573 33.653 33.4815 32.8975C32.8979 29.7971 29.962 27.7172 26.8436 28.195C26.4509 28.2266 26.0563 28.2266 25.6636 28.195C23.0682 27.81 18.7718 28.0255 17.5261 33.5019C16.9184 36.1743 18.2392 36.9129 18.2392 36.9129C18.2392 36.9129 22.5412 31.1311 22.8701 33.4881V33.4881Z" stroke="white" stroke-width="2" stroke-linecap="round" stroke-linejoin="round"/>
<path d="M54.6978 37.0754C54.7018 37.183 54.7038 37.2913 54.7038 37.4001C54.868 41.6644 51.5517 45.258 47.288 45.4359C43.0242 45.258 39.7078 41.6644 39.8721 37.4001C39.8722 37.2365 39.8766 37.0742 39.8855 36.9131" stroke="white" stroke-width="2" stroke-miterlimit="10"/>
<path d="M54.7046 36.9129C54.7046 36.9129 56.0255 36.1743 55.4178 33.5019C54.172 28.0255 49.8757 27.81 47.2803 28.195C46.8876 28.2266 46.493 28.2266 46.1003 28.195C42.9819 27.7172 40.046 29.7971 39.4624 32.8975C39.2866 33.653 38.7077 35.8209 39.8877 36.9132C39.8877 36.9132 44.3179 34.2917 44.9455 32.4931C44.9455 32.4931 49.5373 37.3319 50.0738 33.4881C50.4027 31.1311 54.7046 36.9129 54.7046 36.9129V36.9129Z" stroke="white" stroke-width="2" stroke-linecap="round" stroke-linejoin="round"/>
<path d="M1 53.7499V36.555C1 32.7953 4.76225 29.7471 8.5245 29.7471C10.229 31.1794 11.9335 32.066 13.6435 32.407" stroke="white" stroke-width="2" stroke-miterlimit="10" stroke-linecap="round" stroke-linejoin="round"/>
</svg>
